<svg enable-background="new" version="1.1" viewBox="0 0 744.87 380.07" xmlns="http://www.w3.org/2000/svg" xmlns:xlink="http://www.w3.org/1999/xlink"><defs><linearGradient id="kb"><stop stop-color="#fff" offset="0"/><stop stop-color="#fff" offset=".3"/><stop stop-color="#fff" stop-opacity="0" offset="1"/></linearGradient><linearGradient id="kc"><stop stop-color="#7e8481" offset="0"/><stop stop-color="#fff" offset=".5"/><stop stop-color="#e5e5e5" offset=".55226"/><stop stop-color="#868b88" offset="1"/></linearGradient><linearGradient id="ka"><stop stop-color="#0b0b0b" offset="0"/><stop stop-color="#0a0a0a" offset=".5"/><stop stop-color="#777" offset="1"/></linearGradient><filter id="kdz" color-interpolation-filters="sRGB"><feGaussianBlur stdDeviation="2.4752342"/></filter><radialGradient id="kck" cx="3561.4" cy="1009.9" r="110.57" gradientTransform="matrix(3.6908 .98895 -1.7113 6.3868 -7623 -9798.8)" gradientUnits="userSpaceOnUse" spreadMethod="reflect" xlink:href="#ka"/><linearGradient id="kdx" x1="-948.11" x2="4174.2" y1="-1353.9" y2="1735.9" gradientUnits="userSpaceOnUse" xlink:href="#kc"/><linearGradient id="kdw" x1="2247.2" x2="2249" y1="986.76" y2="1070.9" gradientUnits="userSpaceOnUse" xlink:href="#ka"/><radialGradient id="kcj" cx="1843.6" cy="1431.6" r="940.64" gradientTransform="matrix(1 0 0 .83701 0 233.34)" gradientUnits="userSpaceOnUse" xlink:href="#kb"/><radialGradient id="kci" cx="1484.1" cy="1305.1" r="46.404" gradientTransform="matrix(.43843 .092883 -.19233 .56751 1100.3 417.03)" gradientUnits="userSpaceOnUse" spreadMethod="reflect" xlink:href="#ka"/><radialGradient id="kch" cx="2434.8" cy="1014.3" r="100.1" gradientTransform="matrix(2.3717 .16166 -.047271 .69352 -3255.2 -88.946)" gradientUnits="userSpaceOnUse" xlink:href="#ka"/><linearGradient id="kdv" x1="1246.3" x2="1565.7" y1="946.54" y2="1736.3" gradientTransform="translate(0,-1.2e-5)" gradientUnits="userSpaceOnUse" xlink:href="#kb"/><radialGradient id="kcg" cx="1800.4" cy="1429.4" r="292.16" gradientTransform="matrix(.69534 0 0 1.2682 530.4 -368.4)" gradientUnits="userSpaceOnUse" spreadMethod="reflect" xlink:href="#ka"/><radialGradient id="ki" cx="1568.4" cy="1215.6" r="32.075" gradientTransform="matrix(.34601 .57737 -.54434 .32621 1852.9 133.88)" gradientUnits="userSpaceOnUse" spreadMethod="reflect" xlink:href="#ka"/><radialGradient id="kcf" cx="1465" cy="636.92" r="32.075" gradientTransform="matrix(.56311 .56311 -.5309 .5309 1526.2 24.401)" gradientUnits="userSpaceOnUse" spreadMethod="reflect" xlink:href="#ka"/><radialGradient id="kce" cx="1583.8" cy="1177.7" r="32.075" gradientTransform="matrix(1.1647 2.2857 -1.0233 .52147 1184 -3136.2)" gradientUnits="userSpaceOnUse" spreadMethod="reflect" xlink:href="#ka"/><radialGradient id="kcd" cx="1775.7" cy="203.85" r="363.4" gradientTransform="matrix(.48212 0 0 .61693 905.09 652.67)" gradientUnits="userSpaceOnUse" spreadMethod="reflect" xlink:href="#ka"/><radialGradient id="kcc" cx="1769.1" cy="1283.5" r="409.96" gradientTransform="matrix(1.3281,0,0,4.1625,-611.9,-3395.8)" gradientUnits="userSpaceOnUse" spreadMethod="reflect" xlink:href="#ka"/><radialGradient id="kcb" cx="1770.2" cy="2019.4" r="409.47" gradientTransform="matrix(2.0388,0,0,2.1856,-1830.3,-2483.1)" gradientUnits="userSpaceOnUse" xlink:href="#ka"/><linearGradient id="kdu" x1="1472.8" x2="1523.1" y1="1264.3" y2="1264.3" gradientTransform="matrix(.95224 0 0 .96793 225.56 -94.054)" gradientUnits="userSpaceOnUse" spreadMethod="reflect" xlink:href="#ka"/><linearGradient id="kdt" x1="6238.6" x2="1537.9" y1="678.99" y2="1288.3" gradientTransform="matrix(.5033 -.034224 .033446 .53033 942.13 671.36)" gradientUnits="userSpaceOnUse" spreadMethod="reflect" xlink:href="#kc"/><radialGradient id="kca" cx="1765.3" cy="1425.9" r="186.91" gradientTransform="matrix(1.0255 0 0 .40793 -38.817 771.77)" gradientUnits="userSpaceOnUse" xlink:href="#kc"/><linearGradient id="kds" x1="914.94" x2="1475.8" y1="1064.3" y2="1246.2" gradientTransform="matrix(.51204 -.035359 .034027 .54791 930.97 661.72)" gradientUnits="userSpaceOnUse" spreadMethod="reflect" xlink:href="#ka"/><radialGradient id="kbz" cx="1583.8" cy="1177.7" r="32.075" gradientTransform="matrix(1.2827 2.2216 -.99466 .57426 724.88 -3026.3)" gradientUnits="userSpaceOnUse" spreadMethod="reflect" xlink:href="#ka"/><radialGradient id="kby" cx="1776" cy="1276.3" r="57.984" gradientTransform="matrix(1.3496 0 0 .88299 -620.92 147.37)" gradientUnits="userSpaceOnUse" xlink:href="#ka"/><linearGradient id="kdr" x1="1604.6" x2="1449.9" y1="1283.3" y2="1041.4" gradientTransform="translate(0,-1.2e-5)" gradientUnits="userSpaceOnUse" xlink:href="#kc"/><radialGradient id="kbx" cx="1776.8" cy="1274.1" r="24.24" gradientTransform="matrix(2.6498,0,0,1.7336,-2930.2,-933.64)" gradientUnits="userSpaceOnUse" xlink:href="#ka"/><radialGradient id="kbw" cx="1784.2" cy="1405.1" r="5.7318" gradientTransform="matrix(1,0,0,2.7056,0,-2396.5)" gradientUnits="userSpaceOnUse" xlink:href="#kb"/><radialGradient id="kbv" cx="1730.1" cy="274.07" r="363.4" gradientTransform="matrix(.72927 0 0 .29566 482.83 853.09)" gradientUnits="userSpaceOnUse" spreadMethod="reflect" xlink:href="#ka"/><linearGradient id="kdq" x1="914.94" x2="1475.8" y1="1064.3" y2="1246.2" gradientTransform="matrix(.9704 -.06435 .064486 .99715 170.4 139.45)" gradientUnits="userSpaceOnUse" spreadMethod="reflect" xlink:href="#ka"/><radialGradient id="kbu" cx="1765.8" cy="1047.2" r="9.3435" gradientTransform="matrix(1.6357,0,0,2.7642,-1123,-1847.2)" gradientUnits="userSpaceOnUse" xlink:href="#kb"/><radialGradient id="kbt" cx="1776.4" cy="1368.9" r="409.96" gradientTransform="matrix(1.3077 0 0 .45566 -546.27 760.11)" gradientUnits="userSpaceOnUse" xlink:href="#ka"/><linearGradient id="kdp" x1="1472.8" x2="1523.1" y1="1264.3" y2="1264.3" gradientTransform="matrix(.98876 0 0 .98076 17.661 24.991)" gradientUnits="userSpaceOnUse" spreadMethod="reflect" xlink:href="#ka"/><linearGradient id="kdo" x1="1472.8" x2="1523.1" y1="1264.3" y2="1264.3" gradientTransform="matrix(1.0079,0,0,1,87.827,150.27)" gradientUnits="userSpaceOnUse" spreadMethod="reflect" xlink:href="#ka"/><linearGradient id="kdn" x1="1472.8" x2="1523.1" y1="1264.3" y2="1264.3" gradientTransform="matrix(.96937 0 0 .93656 448.27 -44.256)" gradientUnits="userSpaceOnUse" spreadMethod="reflect" xlink:href="#ka"/><linearGradient id="kdm" x1="1472.8" x2="1523.1" y1="1264.3" y2="1264.3" gradientTransform="matrix(.99322 0 0 .93656 520.87 102.69)" gradientUnits="userSpaceOnUse" spreadMethod="reflect" xlink:href="#ka"/><linearGradient id="kdl" x1="1472.8" x2="1523.1" y1="1264.3" y2="1264.3" gradientTransform="matrix(1.0347,0,0,1.0131,307.93,145.71)" gradientUnits="userSpaceOnUse" spreadMethod="reflect" xlink:href="#ka"/><radialGradient id="kbs" cx="1770.6" cy="1094.4" r="11.422" gradientTransform="matrix(1 0 0 .35021 0 711.14)" gradientUnits="userSpaceOnUse"><stop stop-color="#fff" offset="0"/><stop stop-color="#fff" stop-opacity="0" offset="1"/></radialGradient><radialGradient id="kbr" cx="1791.9" cy="1569.3" r="20.316" gradientTransform="matrix(1.7546,0,0,2.4143,-1353.4,-2223)" gradientUnits="userSpaceOnUse" xlink:href="#kb"/><radialGradient id="kbq" cx="1796.1" cy="1647.2" r="20.286" gradientTransform="matrix(1.8347 .033445 -.037323 2.0474 -1437.1 -1790.7)" gradientUnits="userSpaceOnUse" xlink:href="#kb"/><radialGradient id="kbp" cx="1794.3" cy="1610.1" r="19.062" gradientTransform="matrix(1.4866 0 0 .26506 -870.88 1178.4)" gradientUnits="userSpaceOnUse" xlink:href="#kb"/><linearGradient id="kdk" x1="1562.6" x2="1561.7" y1="1301.7" y2="1238.8" gradientUnits="userSpaceOnUse" xlink:href="#ka"/><radialGradient id="kbo" cx="1515.8" cy="1266.1" r="22.916" gradientTransform="matrix(3.1528 1.147 -.70307 3.5625 -2380.1 -4945.1)" gradientUnits="userSpaceOnUse" xlink:href="#ka"/><linearGradient id="kdj" x1="1561.2" x2="1561.7" y1="1302" y2="1238.8" gradientUnits="userSpaceOnUse" xlink:href="#ka"/><radialGradient id="kbn" cx="1516.5" cy="1266.1" r="22.916" gradientTransform="matrix(3.7985 1.3819 -.84707 4.2922 -3177.8 -6214.8)" gradientUnits="userSpaceOnUse" xlink:href="#ka"/><linearGradient id="kdi" x1="1563.5" x2="1561.7" y1="1306" y2="1238.8" gradientUnits="userSpaceOnUse" xlink:href="#ka"/><radialGradient id="kbm" cx="1530.4" cy="1269.8" r="22.916" gradientTransform="matrix(3.0886 1.1236 -.68875 3.49 -2331.4 -4835.4)" gradientUnits="userSpaceOnUse" xlink:href="#ka"/><linearGradient id="kdh" x1="1564" x2="1561.7" y1="1305.2" y2="1238.8" gradientUnits="userSpaceOnUse" xlink:href="#ka"/><radialGradient id="kh" cx="1517.7" cy="1267.1" r="22.916" gradientTransform="matrix(6.2367,2.2689,-1.3908,7.0472,-6189.8,-11009)" gradientUnits="userSpaceOnUse" xlink:href="#ka"/><linearGradient id="kdg" x1="1564.7" x2="1561.7" y1="1311.5" y2="1238.8" gradientUnits="userSpaceOnUse" xlink:href="#ka"/><radialGradient id="kbl" cx="1520.3" cy="1266.3" r="22.916" gradientTransform="matrix(2.8918 1.052 -.64487 3.2676 -2057.7 -4432)" gradientUnits="userSpaceOnUse" xlink:href="#ka"/><linearGradient id="kdf" x1="1559" x2="1561.7" y1="1288.6" y2="1238.8" gradientUnits="userSpaceOnUse" xlink:href="#ka"/><radialGradient id="kbk" cx="1532.9" cy="1272.2" r="22.916" gradientTransform="matrix(4.851,3.8026,-2.3309,5.4815,-2951.3,-11450)" gradientUnits="userSpaceOnUse" xlink:href="#ka"/><radialGradient id="kbj" cx="2075.7" cy="1047.4" r="32.317" gradientTransform="matrix(1.8208 -1.3096e-7 4.5891e-8 .63807 -1703.8 379.1)" gradientUnits="userSpaceOnUse" xlink:href="#ka"/><radialGradient id="kbi" cx="1979.7" cy="1014.5" r="67.906" gradientTransform="matrix(11.012,2.9508,-1.4455,5.3947,-18349,-10299)" gradientUnits="userSpaceOnUse" xlink:href="#kc"/><radialGradient id="kbh" cx="2774.7" cy="1026.3" r="82.874" gradientTransform="matrix(2.2272 0 0 .49977 -3417.8 509.76)" gradientUnits="userSpaceOnUse" xlink:href="#ka"/><radialGradient id="kbg" cx="2374.9" cy="1059.8" r="92.808" gradientTransform="matrix(2.0224 .1125 -.024999 .2528 -2390.6 455.61)" gradientUnits="userSpaceOnUse" xlink:href="#ka"/><radialGradient id="kbf" cx="2188.7" cy="1044.4" r="29.279" gradientTransform="matrix(1.5671 6.0548e-8 -2.5133e-8 .65048 -1241.1 365.04)" gradientUnits="userSpaceOnUse" xlink:href="#ka"/><radialGradient id="kbe" cx="2302" cy="1038.3" r="13.258" gradientTransform="matrix(1.7579,0,0,1.7579,-1744.7,-786.96)" gradientUnits="userSpaceOnUse" xlink:href="#ka"/><radialGradient id="kbd" cx="2188.7" cy="1044.4" r="29.279" gradientTransform="matrix(1.5671 6.0548e-8 -2.5133e-8 .65048 -894.21 365.04)" gradientUnits="userSpaceOnUse" xlink:href="#ka"/><linearGradient id="kde" x1="-1958" x2="3775.7" y1="2027.2" y2="212.06" gradientUnits="userSpaceOnUse" xlink:href="#kc"/><linearGradient id="kdd" x1="2242.3" x2="2262.6" y1="1013" y2="1013" gradientUnits="userSpaceOnUse" xlink:href="#kc"/><radialGradient id="kbc" cx="2120.7" cy="1014.9" r="29.497" gradientTransform="matrix(.98505 0 0 .91192 32.735 85.88)" gradientUnits="userSpaceOnUse" spreadMethod="reflect" xlink:href="#ka"/><radialGradient id="kbb" cx="2137.4" cy="1138.8" r="29.497" gradientTransform="matrix(1.8966,1.1434,-1.1534,2.086,-625.7,-3643.4)" gradientUnits="userSpaceOnUse" spreadMethod="reflect" xlink:href="#ka"/><radialGradient id="kba" cx="2632.9" cy="944.31" r="37.172" gradientTransform="matrix(1 0 0 .22194 0 734.73)" gradientUnits="userSpaceOnUse" xlink:href="#kb"/><radialGradient id="ke" cx="2135.1" cy="967.05" r="6.0767" gradientUnits="userSpaceOnUse" xlink:href="#kb"/><linearGradient id="kdc" x1="2309.1" x2="2359" y1="953.29" y2="947.21" gradientUnits="userSpaceOnUse" spreadMethod="reflect" xlink:href="#ka"/><radialGradient id="kaz" cx="2121.2" cy="978.44" r="29.497" gradientTransform="matrix(2.8693,0,0,1.7733,-3964.9,-772.93)" gradientUnits="userSpaceOnUse" xlink:href="#ka"/><radialGradient id="kg" cx="1517.9" cy="1227.4" r="4.1586" gradientUnits="userSpaceOnUse" xlink:href="#kb"/><radialGradient id="kay" cx="2421.6" cy="1025.9" r="176.85" gradientTransform="matrix(1.4219 .02559 -.00052794 .029334 -1021.1 959.66)" gradientUnits="userSpaceOnUse" xlink:href="#kb"/><radialGradient id="kax" cx="2484" cy="1061.2" r="395.02" gradientTransform="matrix(1.3404 0 0 .14771 -845.51 904.49)" gradientUnits="userSpaceOnUse" xlink:href="#kb"/><radialGradient id="kaw" cx="2123.4" cy="982.28" r="29.497" gradientTransform="matrix(3.9428,0,0,2.4368,-6251.2,-1397.5)" gradientUnits="userSpaceOnUse" xlink:href="#ka"/><radialGradient id="kav" cx="2118.8" cy="1068.2" r="29.497" gradientTransform="matrix(1.8066 .48408 -.50989 1.9029 -645.2 -1991)" gradientUnits="userSpaceOnUse" spreadMethod="reflect" xlink:href="#ka"/><radialGradient id="kau" cx="1975.2" cy="1016.2" r="14.639" gradientTransform="matrix(1 0 0 .22642 0 786.13)" gradientUnits="userSpaceOnUse" xlink:href="#kb"/><radialGradient id="kat" cx="2121.3" cy="995.02" r="29.497" gradientTransform="matrix(5.3228,0,0,1.6471,-9031.4,-621.16)" gradientUnits="userSpaceOnUse" xlink:href="#ka"/><radialGradient id="kas" cx="2255.3" cy="952.56" r="36.125" gradientTransform="matrix(.82443 0 0 .50868 394.76 482.17)" gradientUnits="userSpaceOnUse" spreadMethod="reflect" xlink:href="#ka"/><linearGradient id="kdb" x1="2040.9" x2="2105" y1="1019.1" y2="1023" gradientTransform="matrix(1,0,0,1.4918,0,-503.06)" gradientUnits="userSpaceOnUse" xlink:href="#ka"/><linearGradient id="kda" x1="2902" x2="3130.9" y1="50.554" y2="936.69" gradientUnits="userSpaceOnUse" xlink:href="#kc"/><linearGradient id="kcz" x1="2982.4" x2="2857" y1="881.28" y2="878.94" gradientUnits="userSpaceOnUse" spreadMethod="reflect" xlink:href="#ka"/><radialGradient id="kar" cx="2978.7" cy="752.2" r="142.41" gradientTransform="matrix(.69287 0 0 .22009 914.84 658.49)" gradientUnits="userSpaceOnUse" spreadMethod="reflect" xlink:href="#ka"/><linearGradient id="kcy" x1="2976.6" x2="3110.1" y1="881.68" y2="869.66" gradientUnits="userSpaceOnUse" spreadMethod="reflect" xlink:href="#ka"/><radialGradient id="kaq" cx="2973.5" cy="914.27" r="93.977" gradientTransform="matrix(1 0 0 .51309 0 445.16)" gradientUnits="userSpaceOnUse" xlink:href="#ka"/><radialGradient id="kap" cx="2978" cy="888.94" r="97.555" gradientTransform="matrix(1.7589 0 0 .74315 -2255.4 231.19)" gradientUnits="userSpaceOnUse" spreadMethod="reflect" xlink:href="#ka"/><linearGradient id="kcx" x1="2731.9" x2="2980.6" y1="903.33" y2="903.33" gradientUnits="userSpaceOnUse" spreadMethod="reflect" xlink:href="#ka"/><radialGradient id="kao" cx="2978.1" cy="869.41" r="126.41" gradientTransform="matrix(.98543 .16582 -.09522 .60871 126.17 -153.64)" gradientUnits="userSpaceOnUse" xlink:href="#kc"/><linearGradient id="kcw" x1="2961.5" x2="3087.9" y1="874.69" y2="928.84" gradientUnits="userSpaceOnUse" spreadMethod="reflect" xlink:href="#ka"/><linearGradient id="kcv" x1="2977.1" x2="2976.6" y1="657.34" y2="826.06" gradientUnits="userSpaceOnUse" xlink:href="#kc"/><radialGradient id="kf" cx="2978.1" cy="869.41" r="126.41" gradientTransform="matrix(1 0 0 .61803 0 332.08)" gradientUnits="userSpaceOnUse" xlink:href="#kb"/><linearGradient id="kcu" x1="2947.7" x2="2905.9" y1="627.25" y2="235.61" gradientTransform="matrix(.46879 .04749 -.046509 .4518 1621.1 348.44)" gradientUnits="userSpaceOnUse" spreadMethod="reflect" xlink:href="#ka"/><radialGradient id="kan" cx="2978.1" cy="869.41" r="126.41" gradientTransform="matrix(.038784 -.49621 -.17842 .0059503 3015.3 2396.5)" gradientUnits="userSpaceOnUse" xlink:href="#kb"/><radialGradient id="kam" cx="2973.5" cy="935.44" r="84.021" gradientTransform="matrix(2.2311 0 0 .92953 -3660.7 65.923)" gradientUnits="userSpaceOnUse" spreadMethod="reflect" xlink:href="#ka"/><linearGradient id="kct" x1="4041.9" x2="3086.5" y1="627.53" y2="1615.2" gradientUnits="userSpaceOnUse" xlink:href="#ka"/><linearGradient id="kcs" x1="2937.3" x2="3374.6" y1="1056" y2="1045.2" gradientUnits="userSpaceOnUse" xlink:href="#ka"/><linearGradient id="kcr" x1="3296.2" x2="3640.4" y1="1231.9" y2="1285.6" gradientTransform="translate(-2,2)" gradientUnits="userSpaceOnUse" spreadMethod="reflect" xlink:href="#ka"/><radialGradient id="kal" cx="2995.2" cy="1167.2" r="41.454" gradientTransform="matrix(1.4288 .38285 -1.0227 3.8168 -92.668 -4419.2)" gradientUnits="userSpaceOnUse" xlink:href="#kb"/><linearGradient id="kcq" x1="2737.8" x2="3316.6" y1="1048.3" y2="1081.8" gradientUnits="userSpaceOnUse" xlink:href="#ka"/><linearGradient id="kcp" x1="3131.3" x2="3379.8" y1="1000.2" y2="997.78" gradientUnits="userSpaceOnUse" xlink:href="#ka"/><radialGradient id="kak" cx="3665.3" cy="828.42" r="44.276" gradientTransform="matrix(2.2057,0,0,1.7458,-4406.4,-628.88)" gradientUnits="userSpaceOnUse" xlink:href="#ka"/><radialGradient id="kaj" cx="2952.4" cy="1198.5" r="34.375" gradientTransform="matrix(6.682,2.0151,-1.9919,10.699,-14401,-17442)" gradientUnits="userSpaceOnUse" xlink:href="#ka"/><radialGradient id="kai" cx="2953.9" cy="1109.8" r="40.781" gradientTransform="matrix(1 0 0 .46935 0 586.77)" gradientUnits="userSpaceOnUse" xlink:href="#kb"/><radialGradient id="kah" cx="2956.8" cy="1109.9" r="37.172" gradientTransform="matrix(.79194 0 0 .22194 615.19 852.83)" gradientUnits="userSpaceOnUse" xlink:href="#kb"/><radialGradient id="kag" cx="2903.4" cy="1057.1" r="29.969" gradientTransform="matrix(3.3726,0,0,2.3633,-6888.6,-1441.1)" gradientUnits="userSpaceOnUse" xlink:href="#ka"/><linearGradient id="kco" x1="2737.7" x2="2906.3" y1="1016.1" y2="1070.2" gradientUnits="userSpaceOnUse" xlink:href="#ka"/><radialGradient id="kaf" cx="2951.6" cy="985.95" r="152.66" gradientTransform="matrix(3.6046 0 0 .36605 -7692.3 626.61)" gradientUnits="userSpaceOnUse" xlink:href="#kb"/><linearGradient id="kcn" x1="3013.2" x2="3522.5" y1="1330.1" y2="1341.8" gradientUnits="userSpaceOnUse" xlink:href="#kb"/><radialGradient id="kae" cx="3132.8" cy="1226" r="31.602" gradientTransform="matrix(2.3338 .46799 -.28924 1.4423 -3823.8 -2020.5)" gradientUnits="userSpaceOnUse" xlink:href="#ka"/><radialGradient id="kad" cx="3133.4" cy="1244.4" r="31.602" gradientTransform="matrix(2.4696 .66174 -.40898 1.5263 -4111.1 -2726.7)" gradientUnits="userSpaceOnUse" xlink:href="#kc"/><radialGradient id="kac" cx="3229.7" cy="1400.7" r="490.47" gradientTransform="matrix(.8672 .0074498 -.00062637 .072912 429.79 1274.5)" gradientUnits="userSpaceOnUse" xlink:href="#kb"/><radialGradient id="kab" cx="2135.1" cy="967.05" r="6.0767" gradientTransform="matrix(6.0698 .48267 -.6449 8.1098 -9083.2 -7368.3)" gradientUnits="userSpaceOnUse" xlink:href="#kb"/><radialGradient id="kd" cx="3295.8" cy="1170.9" r="19.887" gradientUnits="userSpaceOnUse" xlink:href="#kb"/><radialGradient id="kaa" cx="3292.7" cy="1164.7" r="14.958" gradientTransform="matrix(1 0 0 .32588 0 785.14)" gradientUnits="userSpaceOnUse" xlink:href="#kb"/><radialGradient id="kz" cx="3270.3" cy="1171.5" r="5.5144" gradientTransform="matrix(1,0,0,1.6053,0,-709.14)" gradientUnits="userSpaceOnUse" xlink:href="#kb"/><radialGradient id="ky" cx="3312.5" cy="1176.5" r="4.666" gradientTransform="matrix(1,0,0,1.98,0,-1153.1)" gradientUnits="userSpaceOnUse" xlink:href="#kb"/><radialGradient id="kx" cx="3533.8" cy="1167.4" r="14.958" gradientTransform="matrix(1 0 0 .32588 0 786.94)" gradientUnits="userSpaceOnUse" xlink:href="#kb"/><radialGradient id="kw" cx="3511.4" cy="1174.2" r="5.5144" gradientTransform="matrix(1,0,0,1.6053,0,-710.76)" gradientUnits="userSpaceOnUse" xlink:href="#kb"/><radialGradient id="kv" cx="3553.6" cy="1179.2" r="4.666" gradientTransform="matrix(1,0,0,1.98,0,-1155.7)" gradientUnits="userSpaceOnUse" xlink:href="#kb"/><radialGradient id="ku" cx="3547.5" cy="777.69" r="13.424" gradientTransform="matrix(1 0 0 .3992 0 465.24)" gradientUnits="userSpaceOnUse" xlink:href="#kb"/><radialGradient id="kt" cx="3526.2" cy="781.77" r="5.3946" gradientTransform="matrix(1,0,0,1.478,0,-375.7)" gradientUnits="userSpaceOnUse" xlink:href="#kb"/><radialGradient id="ks" cx="3563.7" cy="790.15" r="4.5507" gradientTransform="matrix(1,0,0,1.894,0,-708.39)" gradientUnits="userSpaceOnUse" xlink:href="#kb"/><radialGradient id="kr" cx="2135.1" cy="967.05" r="6.0767" gradientTransform="matrix(2.7733,0,0,1.0234,-2795.5,186.03)" gradientUnits="userSpaceOnUse" xlink:href="#kb"/><radialGradient id="kq" cx="1765.8" cy="1047.2" r="9.3435" gradientTransform="matrix(5.2159 -.20395 .021776 .55689 -7467.3 808.41)" gradientUnits="userSpaceOnUse" xlink:href="#kb"/><radialGradient id="kp" cx="1765.8" cy="1047.2" r="9.3435" gradientTransform="matrix(5.4896 -.24408 .040361 .3639 -7970 1102.6)" gradientUnits="userSpaceOnUse" xlink:href="#kb"/><radialGradient id="ko" cx="1765.8" cy="1047.2" r="9.3435" gradientTransform="matrix(4.4219 -.12426 .021618 .40315 -6064 842.58)" gradientUnits="userSpaceOnUse" xlink:href="#kb"/><radialGradient id="kn" cx="1766.8" cy="1077.4" r="13.375" gradientTransform="matrix(1,0,0,1.1893,0,-200.39)" gradientUnits="userSpaceOnUse" xlink:href="#kb"/><radialGradient id="km" cx="1791.5" cy="1531.7" r="25.692" gradientTransform="matrix(1.537 -.041393 .0087275 .32407 -977.61 1112.2)" gradientUnits="userSpaceOnUse" xlink:href="#kb"/><radialGradient id="kl" cx="3210.9" cy="1694.6" r="103.31" gradientTransform="matrix(2.5901 0 0 .21412 -5106.3 1198.5)" gradientUnits="userSpaceOnUse" xlink:href="#kb"/><linearGradient id="kcm" x1="3073.9" x2="3231.4" y1="774.88" y2="843.48" gradientUnits="userSpaceOnUse" spreadMethod="reflect" xlink:href="#ka"/><radialGradient id="kk" cx="3230.1" cy="684.21" r="224.64" gradientTransform="matrix(1.9817 -.95282 .019522 .040601 -3188.9 3728.7)" gradientUnits="userSpaceOnUse" xlink:href="#kb"/><linearGradient id="kcl" x1="3146.4" x2="2959.3" y1="1361.3" y2="1421.5" gradientTransform="matrix(1 0 0 .97203 0 42.209)" gradientUnits="userSpaceOnUse" xlink:href="#kc"/><radialGradient id="kj" cx="3655.1" cy="1219.2" r="108.77" gradientTransform="matrix(1.8894,0,0,3.3928,-3250.8,-2937.7)" gradientUnits="userSpaceOnUse" xlink:href="#kb"/><linearGradient id="kdy" x1="-2955" x2="9267.9" y1="16247" y2="-4397.2" gradientTransform="translate(-354.63 180.16)" gradientUnits="userSpaceOnUse" xlink:href="#ka"/></defs><rect x="521.5" y="47.813" width="90.649" height="55.874" fill="#fff" style="paint-order:markers fill stroke"/><g transform="translate(-1793.4 -1342.9)"><g transform="matrix(.23676 0 0 .23676 1665.2 1197.2)"><path d="m1780.8 646.46a785.34 1209 86.518 0 0-1239 808.83 785.34 1209 86.518 0 0 1175.7 765.2 785.34 1209 86.518 0 0 1239-808.83 785.34 1209 86.518 0 0-1175.7-765.2z" fill="url(#kdy)"/><path d="m3649.3 1117.5c-20.942 82.765-85.557 164.61-198.09 239.47l5.2187 57.156-5.4063 48.219c39.286 0.078 78.028-1.0847 93.5-55.438l38.063-21.937c42.932-65.787 68.156-145.88 68.156-232.31 0-11.836-0.5119-23.578-1.4375-35.156z" color="#000000" enable-background="accumulate" fill="#0a0908"/><path d="m3670.2 1049.6c-22.181 81.638-90.618 162.35-209.81 236.19l5.5313 56.375c-10.444 37.507-37.91 87.623-11.812 98.063 129.19-66.274 217.59-200.79 217.59-355.97 0-11.675-0.5196-23.236-1.5-34.656z" color="#000000" enable-background="accumulate" fill="#0c0b09"/><path d="m3661.5 973.01c-22.181 81.638-90.618 162.35-209.81 236.19-64.607 57.62-37.975 81.007-6.2812 154.44 129.19-66.274 217.59-200.79 217.59-355.97 0-11.675-0.5196-23.236-1.5-34.656z" color="#000000" enable-background="accumulate" fill="#080605"/><path d="m3672.3 948.09c21.663 114.77-44.96 232.6-212.5 336.81-0.4634 0.2883-0.9099 0.587-1.375 0.875l4.4063 45c58.724-37.767 256.94-154.43 209.47-382.69z" fill="url(#kck)"/><ellipse transform="matrix(1.0427 -.018837 -.054623 1.3594 174.9 1091.3)" cx="1529.1" cy="271.54" rx="1157.9" ry="578.94" color="#000000" enable-background="accumulate" fill="url(#kdx)" opacity=".61207"/><path d="m2797.8 998.81-2.5626 17.406-88.719 1.5c0.082 0.8102 0.125 1.6151 0.125 2.4374 0 22.791-35.096 33.531-74.312 33.531-39.217 0-67.688-10.74-67.688-33.531l-54.219 0.9063c-1.9354 14.979-15.798 29.052-41.656 24.406-7.5554-1.3577-108.84 2.2187-108.84 2.2187-39.142 0.3026-52.312-11.9-47.438-23.219l-27.406 0.4374c1.5236 2.3634 2.3438 4.9129 2.3438 7.5938 0 11.81-16.173 21.375-36.125 21.375s-36.125-9.5655-36.125-21.375c0-2.0298 0.4822-3.9832 1.375-5.8438l-170.41 18.281-15.625 2.3125c-13.399-6.2183-21.555-9.4388-35.656-10.531 9.431 3.6054 18.591 7.4811 27.469 11.594l0.2812 0.125c0.1267 0.059 0.2486 0.1286 0.375 0.1875 7.6763 3.5724 15.115 7.3467 22.344 11.281l1.25 0.625 39.344-1.2187 38.687 16 120.91-10.062 32.562 3.375 508.59 3.9062c3.4153 21.858 8.2817 24.28 25.125 26.75l67.187 5.5c-22.813-36.976-50.025-72.371-81.187-105.97z" fill="url(#kdw)" filter="url(#kdz)"/><path d="m1817.3 644.31c-10.349 0.016-20.737 0.12428-31.156 0.3125-288.09 5.2044-555.23 75.765-767.19 189.28l762.38 420.06 595.03-518.25c-164.6-58.65-354.9-91.71-559.1-91.4zm-36 609.69-878.36 765c210.88 129.13 499.14 205.45 819.94 199.66 446.69-8.0694 843.07-173.26 1061.3-412.09l-1002.8-552.6z" fill="url(#kcj)" opacity=".077586"/><path d="m3597.2 683.72c-11.426-5e-3 -24.474 0.90958-39.438 2.875l-64.844 34.375 133.72 132.31c-5.7315-17.267-18.466-33.368-16.315-51.949 0 0 44.151-19.463 76.347-40.516 4.7689-29.642-9.0473-77.058-89.469-77.094z" fill="#8d8d84"/><ellipse transform="matrix(1.2984,0,0,1.6422,1650.5,-1312.6)" cx="1515.3" cy="1238.8" rx="46.404" ry="23.202" color="#000000" enable-background="accumulate" fill="url(#kci)"/><path d="m2487.1 943.28c-36.047-6.618-96.386 6.1062-139.01 13.05-32.78 5.3401-50.67 21.054-40.006 40.763 5.4967-11.063 19.405-20.499 38.774-22.675 50.796-5.707 131.08-19.894 160.35-9.6083 12.269 4.3101 21.686 19.915 23.617 36.25 5.9915-21.178-5.5188-48.413-22.384-54.338-5.4898-1.9285-12.927-1.8974-21.341-3.4422z" fill="url(#kch)"/><path d="m2737.3 946.53-983.3 419.27 1080.5-318.1c-28.244-35.469-60.767-69.299-97.156-101.19zm-983.3 419.27-1142.1 336.2c22.335 40.302 50.042 78.897 82.594 115.5l1059.5-451.7z" color="#000000" enable-background="accumulate" fill="url(#kdv)" opacity=".11207"/><path d="m2180.4 1241.3c9.2253 146.27-165.39 277.23-390.01 292.51-224.62 15.274-414.19-90.922-423.42-237.2-9.2253-146.27 165.39-277.23 390.01-292.51 224.62-15.274 414.19 90.922 423.42 237.2z" color="#000000" enable-background="accumulate" fill="#666"/><path d="m1791.6 1089.6c-9.8536 0.018-19.831 0.3461-29.906 1.0312-161.21 10.962-286.53 104.95-279.91 209.94 6.6209 104.98 142.7 181.21 303.91 170.25 161.21-10.962 286.53-104.95 279.91-209.94-6.2072-98.422-126.2-171.56-274-171.28zm-0.5313 5.9062c143.24-0.2658 259.48 70.619 265.5 166 6.4163 101.74-115.02 182.87-271.25 193.49-156.23 10.623-288.08-53.285-294.5-155.03-6.4164-101.74 115.02-192.85 271.25-203.47 9.7643-0.6639 19.451-0.9822 29-1z" color="#000000" enable-background="accumulate" fill="url(#kcg)"/><path d="m1749 1424.2c-1.2065-0.011-2.4178 0.037-3.6524 0.1047-19.753 1.0844-35.227 12.082-34.542 24.559s17.259 21.712 37.012 20.628c19.752-1.0844 35.227-12.082 34.542-24.559-0.6422-11.697-15.261-20.565-33.359-20.732z" color="#000000" enable-background="accumulate" fill="#333"/><path d="m1748.1 1424.2c-0.913 0-1.8222 0.019-2.7481 0.069-19.752 1.0844-35.227 12.082-34.542 24.558 0.2481 4.5178 2.6252 8.5998 6.4353 11.931-0.3915-10.365 12.436-19.447 28.872-20.35 16.546-0.9084 30.455 6.8023 31.029 17.254 3.5391-3.7735 5.4703-8.1336 5.2178-12.732-0.6208-11.307-14.292-19.983-31.55-20.697-0.8927-0.037-1.8003-0.038-2.7132-0.034z" color="#000000" enable-background="accumulate" fill="url(#ki)"/><path d="m1997.4 1344.9c-1.2065-0.011-2.4178 0.037-3.6524 0.1046-19.753 1.0844-35.227 12.082-34.542 24.559s17.259 21.712 37.012 20.628c19.752-1.0845 35.227-12.082 34.542-24.559-0.6422-11.697-15.261-20.566-33.359-20.732z" color="#000000" enable-background="accumulate" fill="#333"/><path d="m1996.5 1344.9c-0.913 0-1.8222 0.019-2.7481 0.069-19.752 1.0844-35.227 12.082-34.542 24.559 0.2481 4.5177 2.6252 8.5997 6.4353 11.931-0.3915-10.365 12.436-19.447 28.872-20.349 16.546-0.9085 30.455 6.8022 31.029 17.254 3.5391-3.7734 5.4703-8.1336 5.2178-12.732-0.6208-11.307-14.292-19.983-31.55-20.697-0.8927-0.037-1.8003-0.038-2.7132-0.035z" color="#000000" enable-background="accumulate" fill="url(#ki)"/><path d="m2019.5 1177c-1.2065-0.011-2.4178 0.037-3.6524 0.1046-19.753 1.0845-35.227 12.082-34.542 24.559 0.6849 12.477 17.259 21.712 37.012 20.628 19.752-1.0844 35.227-12.082 34.542-24.559-0.6422-11.697-15.261-20.565-33.359-20.732z" color="#000000" enable-background="accumulate" fill="#333"/><path d="m2018.6 1177c-0.913 0-1.8222 0.019-2.7481 0.069-19.752 1.0844-35.227 12.082-34.542 24.559 0.248 4.5178 2.6251 8.5998 6.4353 11.931-0.3915-10.365 12.436-19.447 28.872-20.35 16.546-0.9084 30.455 6.8023 31.029 17.254 3.5391-3.7734 5.4703-8.1336 5.2178-12.732-0.6208-11.307-14.292-19.983-31.55-20.697-0.8928-0.037-1.8003-0.038-2.7132-0.034z" color="#000000" enable-background="accumulate" fill="url(#kcf)"/><path d="m1809.7 1090.9c-1.0839-0.01-2.1721 0.033-3.2812 0.094-17.745 0.9742-31.647 10.854-31.031 22.063 0.6153 11.209 15.505 19.505 33.25 18.531 17.745-0.9742 31.647-10.854 31.031-22.062-0.5769-10.508-13.71-18.475-29.969-18.625z" color="#000000" enable-background="accumulate" fill="#333"/><path d="m1808.8 1090.9c-0.8202 0-1.637 0.017-2.4688 0.062-17.745 0.9742-31.647 10.854-31.031 22.062 0.2228 4.0586 2.3583 7.7257 5.7812 10.719-0.3517-9.3114 11.172-17.47 25.938-18.281 14.864-0.8161 27.36 6.1109 27.875 15.5 3.1794-3.3899 4.9143-7.3069 4.6875-11.438-0.5577-10.158-12.839-17.952-28.344-18.594-0.802-0.033-1.6173-0.034-2.4374-0.031z" color="#000000" enable-background="accumulate" fill="url(#kce)"/><ellipse transform="matrix(1.0581 -.11382 .11633 1.0814 -253.07 251.73)" cx="1561.2" cy="1179.7" rx="32.178" ry="19.887" color="#000000" enable-background="accumulate" fill="#333"/><path d="m1538.9 1328c-1.7083 0.019-3.4585 0.1097-5.2213 0.2993-18.804 2.0228-33.004 13.297-31.727 25.175 0.4626 4.3009 2.9135 8.084 6.7178 11.074-0.8919-9.8762 10.925-19.202 26.572-20.885 15.752-1.6944 29.393 4.9826 30.463 14.932 3.1903-3.7795 4.8276-8.0607 4.3567-12.438-1.158-10.764-14.648-18.339-31.161-18.158z" color="#000000" enable-background="accumulate" fill="url(#ki)"/><path d="m1796 1031.2c-12.258 0.023-24.654 0.429-37.188 1.2813-200.54 13.636-356.42 130.56-348.19 261.16 0.1286 2.0406 0.2931 4.0709 0.5 6.0938 12.17-119.86 160.47-222.61 347.69-235.34 197.41-13.423 364.47 78.219 377.5 205.66 0.863-8.5154 1.0463-17.119 0.5-25.781-7.7214-122.43-156.95-213.4-340.81-213.06z" color="#000000" enable-background="accumulate" fill="url(#kcd)"/><path d="m2180.7 1253.5c-0.9464 141.26-172.03 265.4-390.34 280.25-2.267 0.1542-4.5208 0.2848-6.7812 0.4063-221.63 12.701-407.46-92.797-416.59-237.59-0.2605-4.1307-0.3734-8.2398-0.3438-12.344-2.9203 14.884-0.6234 65.476 0.3438 80.812 9.2249 146.27 198.76 252.46 423.38 237.19 224.61-15.274 385.05-132.05 394.72-280.69 0.5086-7.8171-2.8739-60.455-4.375-68.031z" color="#000000" enable-background="accumulate" fill="url(#kcc)"/><path d="m2182.2 1345.1c-3.221 18.318-8.76 36.051-16.469 53.094v0.031c-0.4322 0.9733-0.8936 1.9367-1.3437 2.9063-0.039 0.084-0.085 0.1658-0.125 0.25-0.491 1.0537-0.9881 2.1071-1.5 3.1562-0.5109 1.0472-1.0309 2.0825-1.5625 3.125-0.3759 0.7372-0.7388 1.4839-1.125 2.2188-0.1534 0.2947-0.3141 0.5806-0.4688 0.875-0.3587 0.6745-0.7263 1.3587-1.0937 2.0312-55.487 103.18-192.11 177.53-368.19 189.5-150.7 10.248-285.62-34.189-360.88-108.72-0.1069-0.1003-0.2058-0.212-0.3125-0.3124-36.702-34.565-59.162-75.913-62.188-121.38-0.2605-3.914-0.3733-7.83-0.3438-11.719-2.9202 14.104 9.1804 81.12 13.704 94.964 39.285 120.23 185.4 220.82 410.01 206.35 224.61-14.472 385.05-125.1 394.72-265.94 0.3683-5.364-1.3231-32.874-2.8438-50.438z" color="#000000" enable-background="accumulate" fill="url(#kcb)"/><path d="m1628.6 1103.1c-0.3449 1.0061-0.5357 2.0789-0.5357 3.2062v0.9981c0-1.4286 0.1854-2.8337 0.5357-4.2043zm-0.5357 4.2043v24.894c0 0.4105 0.041 0.8132 0.09 1.2097-0.054 0.5529-0.09 1.1028-0.09 1.6638 0 15.345 20.85 27.798 46.57 27.798 25.721-2e-4 46.6-12.453 46.6-27.798 0-0.019 2e-4 -0.041 0-0.06 0.2616-0.8885 0.4167-1.8359 0.4167-2.8132v-24.894c0 15.345-20.966 27.768-46.808 27.768s-46.779-12.422-46.779-27.768zm93.587 0v-0.9981c0-1.1273-0.1908-2.2001-0.5358-3.2062 0.3503 1.3706 0.5358 2.7757 0.5358 4.2043z" color="#000000" enable-background="accumulate" fill="url(#kdu)"/><path d="m1962.2 1256.1c4.2753 67.792-76.647 128.49-180.75 135.56-104.1 7.0787-191.95-42.139-196.23-109.93-4.2754-67.792 76.647-128.49 180.75-135.56 104.1-7.0786 191.95 42.139 196.23 109.93z" color="#000000" enable-background="accumulate" fill="url(#kdt)"/><path d="m1587.5 1250.8c-0.01 0.3434 0 0.6882 0 1.0313 0.01-0.072 0.021-0.1463 0.032-0.2187-0.01-0.2697-0.025-0.5414-0.032-0.8126zm43.103 88.938c36.855 31.44 93.727 49.264 156.42 44.469 43.678-3.3408 83.359-17.132 114.57-37.625-19.846 11.005-42.956 19.704-68.26 25.312-0.075 0.02-0.1492 0.043-0.2243 0.062-14.68 3.8326-30.112 6.4659-46.084 7.6875-33.91 2.5938-66.113-1.4428-94.379-10.656-23.947-6.7864-45.079-16.793-62.043-29.25z" color="#000000" enable-background="accumulate" fill="url(#kca)"/><path d="m1967.7 1256.7c-0.1615 67.788-80.895 127.41-184.02 134.53-101.33 6.9971-187.53-39.253-198.61-104.61-0.01 1.8845 0.041 3.7862 0.159 5.6822 4.3496 70.038 93.72 120.89 199.63 113.58 105.91-7.3131 188.24-70.049 183.89-140.09-0.191-3.0752-0.5361-6.1065-1.0492-9.1045z" color="#000000" enable-background="accumulate" fill="url(#kds)"/><g fill="#fff"><path d="m1993.1 1343c1.9127-0.1319 3.6896 3.1995 3.9841 7.4695l0.3655 5.3c0.2945 4.27-1.0083 7.8138-2.921 7.9457s-3.6896-3.1995-3.9841-7.4695l-0.3655-5.2999c-0.2945-4.2701 1.0083-7.8139 2.921-7.9458z" color="#000000" enable-background="accumulate"/><path d="m2015.6 1174.3c1.9127-0.1319 3.6896 3.1995 3.9841 7.4695l0.3655 5.2999c0.2945 4.27-1.0083 7.8138-2.921 7.9457s-3.6896-3.1995-3.9841-7.4695l-0.3655-5.2999c-0.2945-4.27 1.0083-7.8138 2.921-7.9457z" color="#000000" enable-background="accumulate"/><path d="m1748.4 1422.3c2.0643-0.1424 3.9633 3.1806 4.2578 7.4506l0.4787 6.9419c0.2945 4.27-1.1303 7.8222-3.1947 7.9646-2.0642 0.1423-3.9632-3.1806-4.2577-7.4507l-0.4788-6.9418c-0.2944-4.2701 1.1304-7.8223 3.1947-7.9646z" color="#000000" enable-background="accumulate"/><path d="m1806.1 1091.6c1.9127-0.1006 3.7627 3.2461 4.1479 7.5036l0.038 0.4189c0.3852 4.2576-0.8445 7.7661-2.7572 7.8667-1.9127 0.1005-3.7627-3.2461-4.1479-7.5037l-0.038-0.4189c-0.3852-4.2575 0.8445-7.7661 2.7572-7.8666z" color="#000000" enable-background="accumulate"/></g><ellipse transform="matrix(.99426 -.10696 .10931 1.0162 -111.54 150.97)" cx="1561.2" cy="1179.7" rx="32.178" ry="19.887" color="#000000" enable-background="accumulate" fill="#333"/><path d="m1572.3 1162.3c-1.6052 0.018-3.2498 0.1031-4.9063 0.2813-17.67 1.9007-31.013 12.495-29.812 23.656 0.4347 4.0414 2.7378 7.5962 6.3125 10.406-0.8381-9.2803 10.266-18.043 24.969-19.625 14.801-1.5922 27.619 4.682 28.625 14.031 2.9978-3.5515 4.5363-7.5744 4.0938-11.688-1.0881-10.115-13.764-17.232-29.281-17.062z" color="#000000" enable-background="accumulate" fill="url(#kbz)"/><g fill="#fff"><path d="m1569.8 1160c1.9127-0.1006 3.7627 3.2461 4.1479 7.5036l0.038 0.4189c0.3852 4.2576-0.8445 7.7661-2.7572 7.8666-1.9127 0.1006-3.7627-3.2461-4.1479-7.5037l-0.038-0.4188c-0.3852-4.2576 0.8445-7.7661 2.7572-7.8666z" color="#000000" enable-background="accumulate"/><path d="m1533.8 1327.9c1.9127-0.1006 3.7627 3.2461 4.1479 7.5036l0.038 0.4189c0.3853 4.2576-0.8444 7.7661-2.7572 7.8667-1.9126 0.1005-3.7626-3.2461-4.1478-7.5037l-0.038-0.4189c-0.3853-4.2575 0.8444-7.7661 2.7571-7.8666z" color="#000000" enable-background="accumulate"/><path d="m1620.8 1431.4c1.6877-0.111 3.2946 3.2304 3.6028 7.492l0.148 2.0465c0.3082 4.2616-0.8025 7.7817-2.4902 7.8927-1.6878 0.111-3.2946-3.2304-3.6028-7.492l-0.148-2.0465c-0.3082-4.2616 0.8024-7.7817 2.4902-7.8927z" color="#000000" enable-background="accumulate"/><path d="m1887.1 1440.6c1.6877-0.111 3.2946 3.2304 3.6028 7.492l0.148 2.0465c0.3082 4.2616-0.8025 7.7817-2.4902 7.8927-1.6878 0.111-3.2946-3.2304-3.6028-7.492l-0.148-2.0465c-0.3082-4.2616 0.8024-7.7817 2.4902-7.8927z" color="#000000" enable-background="accumulate"/></g><path d="m1834 1255.6c1.3141 20.837-23.558 39.492-55.554 41.667-31.996 2.1758-58.999-12.952-60.313-33.788-1.314-20.837 23.558-39.492 55.554-41.668 31.996-2.1757 58.999 12.952 60.313 33.789z" color="#000000" enable-background="accumulate" fill="url(#kby)"/><path d="m1828.2 1255.9c1.1839 18.773-21.225 35.58-50.052 37.54-28.827 1.9603-53.155-11.669-54.339-30.442-1.1838-18.773 21.225-35.58 50.052-37.54 28.827-1.9602 53.155 11.669 54.339 30.442z" color="#000000" enable-background="accumulate" fill="url(#kdr)"/><path d="m1800.3 1257.8c0.5493 8.7107-9.8486 16.51-23.224 17.419-13.376 0.9096-24.664-5.4145-25.214-14.125-0.5493-8.7107 9.8486-16.51 23.224-17.419 13.376-0.9096 24.664 5.4145 25.214 14.125z" color="#000000" enable-background="accumulate" fill="url(#kbx)"/><path d="m1783.2 1389.6c2.8622-0.1974 5.4035 3.0813 5.698 7.3513l1.0748 15.584c0.2944 4.27-1.7728 7.8665-4.635 8.0639s-5.4035-3.0812-5.698-7.3513l-1.0747-15.584c-0.2945-4.27 1.7727-7.8665 4.6349-8.0639z" color="#000000" enable-background="accumulate" fill="url(#kbw)"/><g fill="#fff"><path d="m1774.8 1220.5c2.0737-0.069 4.0886 2.2946 4.5177 5.2997 0.429 3.0051-0.8951 5.48-2.9688 5.5491-2.0737 0.069-4.0886-2.2946-4.5176-5.2997-0.4291-3.0051 0.895-5.48 2.9687-5.5491z" color="#000000" enable-background="accumulate"/><path d="m1776.6 1243.5c2.0737-0.069 4.0886 2.2946 4.5177 5.2997 0.429 3.0051-0.8951 26.441-2.9688 26.51s-4.0886-23.255-4.5176-26.26c-0.4291-3.0051 0.895-5.48 2.9687-5.5491z" color="#000000" enable-background="accumulate"/><path d="m1778.1 1291.3c2.0737-0.017 4.0886 0.5756 4.5177 1.3295 0.429 0.7539-0.8951 1.3748-2.9688 1.3921-2.0737 0.017-4.0886-0.5756-4.5176-1.3295-0.4291-0.7539 0.895-1.3748 2.9687-1.3921z" color="#000000" enable-background="accumulate"/><path d="m1778.2 1296c1.0053-0.017 1.982 0.5756 2.19 1.3295s-0.4339 1.3748-1.4392 1.3921c-1.0052 0.017-1.982-0.5756-2.19-1.3295s0.4339-1.3748 1.4392-1.3921z" color="#000000" enable-background="accumulate"/></g><ellipse transform="matrix(1.0084,0,0,1.1639,146.75,-333.75)" cx="1515.3" cy="1238.8" rx="46.404" ry="23.202" color="#000000" enable-background="accumulate" fill="#4d4d4d"/><path d="m1796 1029.2c-3.0645 0.01-6.1371 0.031-9.2188 0.091-9.2452 0.1798-18.568 0.6282-27.969 1.3297-187.21 13.969-335.51 126.7-347.69 258.21 1.1685-11.087 3.6133-22.007 7.1874-32.73 33.745-115.04 171.18-208.46 340.5-221.1 12.534-0.9353 24.93-1.3951 37.188-1.4203 178.91-0.3644 325.02 94.159 339.88 223.03 0.03 0.2319 0.064 0.4629 0.094 0.695 0.1205 0.9586 0.242 1.9082 0.3437 2.871 0.062-0.5952 0.101-1.1869 0.1563-1.783-10.653-129.93-154.07-226.47-331.88-229.14-2.8555-0.043-5.7209-0.066-8.5937-0.06z" color="#000000" enable-background="accumulate" fill="url(#kbv)"/><path d="m2137.4 1247.1c-2.0501 122.49-154.48 229.87-348.78 242.75-200.71 13.309-370.1-79.256-378.34-206.72-0.171-2.6451-0.2818-5.2734-0.3124-7.9062-0.06 3.9544 0.055 7.923 0.3124 11.906 8.2431 127.46 177.64 220.03 378.34 206.72 196.42-13.025 350.03-122.61 348.78-246.75z" color="#000000" enable-background="accumulate" fill="url(#kdq)"/><path d="m1776.8 1028.3-22.75 1.5626v36.875l22.75-1.2188v-37.219z" color="#000000" enable-background="accumulate" fill="url(#kbu)"/><path d="m2180.7 1253.5c-0.9465 141.26-172.03 265.4-390.34 280.25-2.267 0.1543-4.5209 0.2848-6.7812 0.4063-221.63 12.701-407.46-92.797-416.59-237.59-0.2605-4.1308-0.3733-8.2398-0.3438-12.344-1.1367 5.7937-1.4956 17.009-1.4374 29.438 0.031-10.79 0.4248-20.276 1.4374-25.438-0.029 4.104 0.083 8.2131 0.3438 12.344 9.1318 144.8 194.96 250.29 416.59 237.59 2.2603-0.1215 4.5142-0.2521 6.7812-0.4063 218.32-14.845 389.4-138.99 390.34-280.25 1.312 6.6223 4.074 47.67 4.4062 63.125 0.2811-10.025-2.9483-59.766-4.4062-67.125z" color="#000000" enable-background="accumulate" fill="url(#kbt)"/><path d="m1474.5 1238c-0.358 1.0194-0.5562 2.1064-0.5562 3.2486v1.0115c0-1.4476 0.1925-2.8714 0.5562-4.2601zm-0.5562 4.2601v25.224c0 0.416 0.043 0.8242 0.093 1.226-0.056 0.5601-0.093 1.1173-0.093 1.6857 0 15.548 21.649 28.166 48.356 28.166 26.707-2e-4 48.387-12.618 48.387-28.166 0-0.021 2e-4 -0.041 0-0.061 0.2716-0.9003 0.4327-1.8602 0.4327-2.8504v-25.224c0 15.548-21.77 28.135-48.604 28.135-26.833 0-48.573-12.587-48.573-28.135zm97.176 0v-1.0115c0-1.1422-0.1981-2.2292-0.5563-3.2486 0.3637 1.3887 0.5563 2.8125 0.5563 4.2601z" color="#000000" enable-background="accumulate" fill="url(#kdp)"/><ellipse transform="matrix(1.047,0,0,1.2134,-64.059,-260.91)" cx="1515.3" cy="1238.8" rx="46.404" ry="23.202" color="#000000" enable-background="accumulate" fill="#4d4d4d"/><path d="m1572.9 1387.1c-0.3649 1.0394-0.5669 2.1478-0.5669 3.3124v1.0313c0-1.476 0.1962-2.9277 0.5669-4.3437zm-0.5669 4.3437v25.719c0 0.4241 0.043 0.8403 0.095 1.25-0.057 0.5711-0.095 1.1393-0.095 1.7188 0 15.854 22.069 28.719 49.295 28.719 27.226-2e-4 49.326-12.865 49.326-28.719 0-0.021 2e-4 -0.042 0-0.062 0.2769-0.9179 0.4411-1.8967 0.4411-2.9063v-25.719c0 15.854-22.193 28.688-49.547 28.688s-49.516-12.834-49.516-28.688zm99.062 0v-1.0313c0-1.1646-0.202-2.273-0.5671-3.3124 0.3708 1.416 0.5671 2.8677 0.5671 4.3437z" color="#000000" enable-background="accumulate" fill="url(#kdo)"/><ellipse transform="matrix(1.0673,0,0,1.2372,4.5199,-141.24)" cx="1515.3" cy="1238.8" rx="46.404" ry="23.202" color="#000000" enable-background="accumulate" fill="#4d4d4d"/><path d="m1876.5 1114.1c-0.3509 0.9735-0.5452 2.0116-0.5452 3.1023v0.9659c0-1.3824 0.1887-2.742 0.5452-4.0682zm-0.5452 4.0682v24.087c0 0.3972 0.042 0.787 0.091 1.1707-0.056 0.5349-0.091 1.067-0.091 1.6098 0 14.848 21.225 26.897 47.408 26.897 26.184-2e-4 47.439-12.049 47.439-26.897 0-0.02 2e-4 -0.039 0-0.058 0.2662-0.8597 0.4241-1.7764 0.4241-2.7219v-24.087c0 14.848-21.344 26.868-47.651 26.868s-47.62-12.02-47.62-26.868zm95.271 0v-0.9659c0-1.0907-0.1942-2.1288-0.5453-3.1023 0.3565 1.3262 0.5453 2.6858 0.5453 4.0682z" color="#000000" enable-background="accumulate" fill="url(#kdn)"/><ellipse transform="matrix(1.0265,0,0,1.1587,368.15,-317.28)" cx="1515.3" cy="1238.8" rx="46.404" ry="23.202" color="#000000" enable-background="accumulate" fill="#4d4d4d"/><path d="m1984.3 1261.1c-0.3596 0.9734-0.5586 2.0115-0.5586 3.1022v0.9659c0-1.3823 0.1933-2.742 0.5586-4.0681zm-0.5586 4.0681v24.087c0 0.3972 0.043 0.787 0.093 1.1707-0.057 0.5349-0.093 1.0671-0.093 1.6098 0 14.848 21.747 26.897 48.575 26.897 26.828-2e-4 48.606-12.049 48.606-26.897 0-0.02 2e-4 -0.039 0-0.058 0.2728-0.8596 0.4346-1.7763 0.4346-2.7219v-24.087c0 14.848-21.869 26.868-48.823 26.868s-48.792-12.02-48.792-26.868zm97.615 0v-0.9659c0-1.0907-0.199-2.1288-0.5588-3.1022 0.3653 1.3261 0.5588 2.6858 0.5588 4.0681z" color="#000000" enable-background="accumulate" fill="url(#kdm)"/><ellipse transform="matrix(1.0517,0,0,1.1587,438.78,-170.33)" cx="1515.3" cy="1238.8" rx="46.404" ry="23.202" color="#000000" enable-background="accumulate" fill="#4d4d4d"/><path d="m1832.4 1398.8c-0.3748 1.053-0.5821 2.176-0.5821 3.3559v1.0448c0-1.4954 0.2015-2.9661 0.5821-4.4007zm-0.5821 4.4007v26.056c0 0.4297 0.044 0.8513 0.097 1.2664-0.059 0.5786-0.097 1.1543-0.097 1.7414 0 16.062 22.654 29.096 50.602 29.096 27.947-2e-4 50.634-13.034 50.634-29.096 0-0.021 3e-4 -0.043 0-0.063 0.2843-0.93 0.4528-1.9216 0.4528-2.9445v-26.056c0 16.062-22.781 29.064-50.861 29.064-28.079 0-50.828-13.002-50.828-29.064zm101.69 0v-1.0448c0-1.1799-0.2073-2.3029-0.5821-3.3559 0.3806 1.4346 0.5821 2.9053 0.5821 4.4007z" color="#000000" enable-background="accumulate" fill="url(#kdl)"/><ellipse transform="matrix(1.0956,0,0,1.2534,222.41,-149.64)" cx="1515.3" cy="1238.8" rx="46.404" ry="23.202" color="#000000" enable-background="accumulate" fill="#4d4d4d"/><path d="m1365.2 1311.7c-0.058 20.326 1.1495 45.357 1.7813 55.375 9.2253 146.27 198.77 252.46 423.39 237.19 224.62-15.274 385.07-132.05 394.74-280.69 0.063-0.9771 0.078-2.6415 0.031-4.8437-0.01 0.272-0.018 0.6343-0.031 0.8437-9.6698 148.63-170.12 265.41-394.74 280.69-224.62 15.274-414.17-90.915-423.39-237.19-0.5907-9.367-1.6902-31.873-1.7813-51.375z" color="#000000" enable-background="accumulate"/><path d="m1781.9 1090.4-22.75 0.5626 0.094 7.4374 22.75-0.5z" color="#000000" enable-background="accumulate" fill="url(#kbs)"/><path d="m3003.1 701.44h331.25v348.44h-331.25z" color="#000000" enable-background="accumulate"/><path d="m1802.7 1528.8-30.486 1.7316 6.5798 72.346 30.486-1.7316-6.5799-72.346z" color="#000000" enable-background="accumulate" fill="url(#kbr)"/><path d="m1809.7 1610.8-29.953 1.6563 3.7969 60.594 31.531-3.25z" color="#000000" enable-background="accumulate" fill="url(#kbq)"/><path d="m1824.9 1600.1c-18.338 1.1579-37.273 2.0496-56.687 2.7187 2.9908 11.405 45.842 8.9064 56.687-2.7187z" color="#000000" enable-background="accumulate" fill="url(#kbp)"/><ellipse transform="matrix(.68525 0 0 .80062 483.59 249.35)" cx="1515.3" cy="1238.8" rx="46.404" ry="23.202" color="#000000" enable-background="accumulate" fill="url(#kdk)"/><path transform="matrix(.97696 0 0 -.71956 35.062 2134.3)" d="m1544.4 1254.1c-2.8685 4.9684-10.127-3.1199-15.095-0.2514-4.9684 2.8685-1.5929 13.199-7.3299 13.199-5.7371 0-2.3616-10.33-7.33-13.199s-12.227 5.2198-15.095 0.2514 7.7654-7.2103 7.7654-12.947-10.634-7.9789-7.7654-12.947c2.8686-4.9684 10.127 3.1199 15.095 0.2514s1.5929-13.199 7.33-13.199c5.737 0 2.3615 10.33 7.3299 13.199 4.9685 2.8685 12.227-5.2198 15.095-0.2514s-7.7654 7.2103-7.7654 12.947 10.634 7.9789 7.7654 12.947z" color="#000000" enable-background="accumulate" fill="url(#kbo)"/><ellipse transform="matrix(.68525 0 0 .80062 636.46 114.25)" cx="1515.3" cy="1238.8" rx="46.404" ry="23.202" color="#000000" enable-background="accumulate" fill="url(#kdj)"/><path transform="matrix(.97696 0 0 -.71956 187.93 1999.2)" d="m1544.4 1254.1c-2.8685 4.9684-10.127-3.1199-15.095-0.2514-4.9684 2.8685-1.5929 13.199-7.3299 13.199-5.7371 0-2.3616-10.33-7.33-13.199s-12.227 5.2198-15.095 0.2514 7.7654-7.2103 7.7654-12.947-10.634-7.9789-7.7654-12.947c2.8686-4.9684 10.127 3.1199 15.095 0.2514s1.5929-13.199 7.33-13.199c5.737 0 2.3615 10.33 7.3299 13.199 4.9685 2.8685 12.227-5.2198 15.095-0.2514s-7.7654 7.2103-7.7654 12.947 10.634 7.9789 7.7654 12.947z" color="#000000" enable-background="accumulate" fill="url(#kbn)"/><ellipse transform="matrix(.68525 0 0 .80062 886.42 126.36)" cx="1515.3" cy="1238.8" rx="46.404" ry="23.202" color="#000000" enable-background="accumulate" fill="url(#kdi)"/><path transform="matrix(.97696 0 0 -.71956 437.89 2011.3)" d="m1544.4 1254.1c-2.8685 4.9684-10.127-3.1199-15.095-0.2514-4.9684 2.8685-1.5929 13.199-7.3299 13.199-5.7371 0-2.3616-10.33-7.33-13.199s-12.227 5.2198-15.095 0.2514 7.7654-7.2103 7.7654-12.947-10.634-7.9789-7.7654-12.947c2.8686-4.9684 10.127 3.1199 15.095 0.2514s1.5929-13.199 7.33-13.199c5.737 0 2.3615 10.33 7.3299 13.199 4.9685 2.8685 12.227-5.2198 15.095-0.2514s-7.7654 7.2103-7.7654 12.947 10.634 7.9789 7.7654 12.947z" color="#000000" enable-background="accumulate" fill="url(#kbm)"/><ellipse transform="matrix(.68525 0 0 .80062 994.14 273.3)" cx="1515.3" cy="1238.8" rx="46.404" ry="23.202" color="#000000" enable-background="accumulate" fill="url(#kdh)"/><path transform="matrix(.97696 0 0 -.71956 545.62 2158.2)" d="m1544.4 1254.1c-2.8685 4.9684-10.127-3.1199-15.095-0.2514-4.9684 2.8685-1.5929 13.199-7.3299 13.199-5.7371 0-2.3616-10.33-7.33-13.199s-12.227 5.2198-15.095 0.2514 7.7654-7.2103 7.7654-12.947-10.634-7.9789-7.7654-12.947c2.8686-4.9684 10.127 3.1199 15.095 0.2514s1.5929-13.199 7.33-13.199c5.737 0 2.3615 10.33 7.3299 13.199 4.9685 2.8685 12.227-5.2198 15.095-0.2514s-7.7654 7.2103-7.7654 12.947 10.634 7.9789 7.7654 12.947z" color="#000000" enable-background="accumulate" fill="url(#kh)"/><ellipse transform="matrix(.68525 0 0 .80062 846.23 411.35)" cx="1515.3" cy="1238.8" rx="46.404" ry="23.202" color="#000000" enable-background="accumulate" fill="url(#kdg)"/><path transform="matrix(.97696 0 0 -.71956 397.71 2296.3)" d="m1544.4 1254.1c-2.8685 4.9684-10.127-3.1199-15.095-0.2514-4.9684 2.8685-1.5929 13.199-7.3299 13.199-5.7371 0-2.3616-10.33-7.33-13.199s-12.227 5.2198-15.095 0.2514 7.7654-7.2103 7.7654-12.947-10.634-7.9789-7.7654-12.947c2.8686-4.9684 10.127 3.1199 15.095 0.2514s1.5929-13.199 7.33-13.199c5.737 0 2.3615 10.33 7.3299 13.199 4.9685 2.8685 12.227-5.2198 15.095-0.2514s-7.7654 7.2103-7.7654 12.947 10.634 7.9789 7.7654 12.947z" color="#000000" enable-background="accumulate" fill="url(#kbl)"/><ellipse transform="matrix(.68525 0 0 .80062 583.9 399.62)" cx="1515.3" cy="1238.8" rx="46.404" ry="23.202" color="#000000" enable-background="accumulate" fill="url(#kdf)"/><path transform="matrix(.97696 0 0 -.71956 135.38 2284.6)" d="m1544.4 1254.1c-2.8685 4.9684-10.127-3.1199-15.095-0.2514-4.9684 2.8685-1.5929 13.199-7.3299 13.199-5.7371 0-2.3616-10.33-7.33-13.199s-12.227 5.2198-15.095 0.2514 7.7654-7.2103 7.7654-12.947-10.634-7.9789-7.7654-12.947c2.8686-4.9684 10.127 3.1199 15.095 0.2514s1.5929-13.199 7.33-13.199c5.737 0 2.3615 10.33 7.3299 13.199 4.9685 2.8685 12.227-5.2198 15.095-0.2514s-7.7654 7.2103-7.7654 12.947 10.634 7.9789 7.7654 12.947z" color="#000000" enable-background="accumulate" fill="url(#kbk)"/><path d="m1990.3 1035v0.031c18.272 6.7617 35.63 14.459 51.812 23.063 13.102 0.5747 25.438 0.2953 32.469 0.6562 25.673 0 37.238 0.5794 33.469-22.656l-117.7-1.1z" color="#000000" enable-background="accumulate" fill="url(#kbj)"/><path d="m2034 981.97-33 5.0938-17.219 15.469-73.438 10.375 0.062 0.031c40.773 7.8242 78.619 19.913 112.31 35.562l23.438-3.5625-12.156-62.969z" fill="url(#kbi)"/><path d="m2702.5 1014h164.62c0.2286 29.288 7.2722 36.46-22.097 36.46h-111.59c-35.836 3.2582-30.936-3.5534-30.936-36.46z" color="#000000" enable-background="accumulate" fill="url(#kbh)"/><ellipse transform="matrix(.99726 -.073964 .098618 1.3297 -36.83 -136.48)" cx="2367.7" cy="976.99" rx="92.808" ry="11.601" color="#000000" enable-background="accumulate" fill="url(#kbg)"/><path d="m2159.4 1032.2h58.557c0.6747 25.986-5.007 24.307-31.667 24.307-18.316 1.243-26.89 1.6263-26.89-24.307z" color="#000000" enable-background="accumulate" fill="url(#kbf)"/><path d="m2288.7 1025.1h26.516c-0.1668 19.822 5.8361 26.516-14.441 26.516-18.395 2.7841-12.075-11.853-12.075-26.516z" color="#000000" enable-background="accumulate" fill="url(#kbe)"/><path d="m2506.4 1032.2h58.557c0.6747 25.986-5.007 24.307-31.667 24.307-18.316 1.243-26.89 1.6263-26.89-24.307z" color="#000000" enable-background="accumulate" fill="url(#kbd)"/><path d="m2743.9 831.41c-6.2644 7.6955-1.1626 20.273-20.406 22.406l-51.938-3.3438c-18.6-22-35.1-24.92-38.4 10.96l-104.2 27.72c-28.909-5.684-55.08-8.3042-60.75 12.156l-96.125 15.469c-42.967-8.8148-61.284 2.0768-75.125 16.562l-197.8 19.9c-18.725 5.5515-22.706 15.199-28.719 24.281-2.7492 16.82 6.8137 33.872 12.156 50.844l712.62-12.156 4.4063-29.844-55.812-154.97zm-277.7 100.09c7.5994-0.1048 14.142 0.28608 19.125 1.3125 26.575 5.4742 42.783 54.125-16.562 54.125-7.6763 0-108.84 2.2188-108.84 2.2188-69.309 0.53592-60.839-36.726-16.156-42.781 36.305-4.9197 89.507-14.421 122.44-14.875zm-214.75 22.969c0.6157-0.0185 1.2203 0 1.8438 0 19.952 0 36.125 9.5655 36.125 21.375s-16.173 21.375-36.125 21.375-36.125-9.5655-36.125-21.375c0-11.44 15.193-20.802 34.281-21.375z" fill="url(#kde)"/><path d="m2046.2 1044.9 62.977-6.6291c16.19 4.1363 31.822 11.625 50.823-1.1049l65.186-3.3145c21.718 7.3451 55.243 2.2097 55.243 2.2097h564.58l26.516-45.299-71.816-4.4194-4.4194 29.831-519.28-1.1049s-31.307 5.6676-45.535 1.373l-108.04 9.6756c-65.623-6.3696-58.099-59.746-23.202-72.92-5.5074 1.83-22.133 6.1171-28.726 24.307l-36.46 4.4194z" fill="url(#kdd)"/><ellipse transform="matrix(1.0749,0,0,1.0295,-146.76,-28.567)" cx="2121.3" cy="986.93" rx="29.497" ry="18.23" color="#000000" enable-background="accumulate" fill="url(#kbc)"/><ellipse transform="matrix(2.3636,0,0,2.2637,-2383.3,-1289.5)" cx="2121.3" cy="986.93" rx="29.497" ry="18.23" color="#000000" enable-background="accumulate" fill="url(#kbb)"/><path d="m2629.8 936.06c-12.366 0-23.992 4.0994-34.062 11.344 9.1828-2.6355 19.484-4.0938 30.375-4.0938 16.677 0 31.971 3.4687 43.969 9.25-11.376-10.385-25.258-16.5-40.281-16.5z" color="#000000" enable-background="accumulate" fill="url(#kba)"/><g fill="url(#ke)"><circle transform="matrix(.93572 0 0 .93572 137.25 62.164)" cx="2135.1" cy="967.05" r="6.0767" color="#000000" enable-background="accumulate"/><circle transform="matrix(1.3214,0,0,1.3214,-687.82,-301.45)" cx="2135.1" cy="967.05" r="6.0767" color="#000000" enable-background="accumulate"/><circle transform="matrix(1.5785,0,0,1.5785,-1116.5,-530.96)" cx="2135.1" cy="967.05" r="6.0767" color="#000000" enable-background="accumulate"/></g><path d="m2466.2 931.5c-32.931 0.45415-86.133 9.9553-122.44 14.875-26.03 3.5274-39.765 17.66-33 28.719 4.2041-7.5529 15.963-14.41 33-16.719 44.683-6.055 114.99-19.037 141.56-13.562 11.136 2.294 20.427 12.175 23.125 22.875 4.0316-14.255-7.8171-31.722-23.125-34.875-4.9828-1.0264-11.526-1.4173-19.125-1.3125z" fill="url(#kdc)"/><g fill="url(#ke)"><circle transform="matrix(1.5785,0,0,1.5785,-1029,-570.41)" cx="2135.1" cy="967.05" r="6.0767" color="#000000" enable-background="accumulate"/><circle transform="matrix(1.6695,0,0,1.6695,-1312.1,-601.43)" cx="2135.1" cy="967.05" r="6.0767" color="#000000" enable-background="accumulate"/><circle transform="matrix(1.4876 0 0 .91747 -924.96 166.65)" cx="2135.1" cy="967.05" r="6.0767" color="#000000" enable-background="accumulate"/><circle transform="matrix(1.4876,0,0,1.4876,-706.75,-507.36)" cx="2135.1" cy="967.05" r="6.0767" color="#000000" enable-background="accumulate"/><circle transform="matrix(1.4876,0,0,1.4876,-710.06,-469.79)" cx="2135.1" cy="967.05" r="6.0767" color="#000000" enable-background="accumulate"/><circle transform="matrix(1.4876,0,0,1.8967,-711.72,-893.85)" cx="2135.1" cy="967.05" r="6.0767" color="#000000" enable-background="accumulate"/></g><ellipse transform="matrix(.72375 0 0 .69314 598.17 309.48)" cx="2121.3" cy="986.93" rx="29.497" ry="18.23" color="#000000" enable-background="accumulate" fill="url(#kaz)"/><path d="m2628.1 953.25c-21.877 0-41.405 5.9501-54.188 15.281 12.644 10.477 33.339 17.312 56.75 17.312 21.877 0 41.405-5.9501 54.188-15.281-12.644-10.477-33.339-17.312-56.75-17.312z" color="#000000" enable-background="accumulate" fill="#9c9c9c"/><g fill="url(#kg)"><circle transform="matrix(1.1426,0,0,1.1426,-213.29,-175.65)" cx="1517.9" cy="1227.4" r="4.1586" color="#000000" enable-background="accumulate"/><circle transform="matrix(1.1553,0,0,1.1553,-211.08,-184.79)" cx="1517.9" cy="1227.4" r="4.1586" color="#000000" enable-background="accumulate"/><circle transform="matrix(.8564 0 0 .8564 243.33 196.41)" cx="1517.9" cy="1227.4" r="4.1586" color="#000000" enable-background="accumulate"/><circle transform="matrix(.8564 0 0 .8564 360.26 63.77)" cx="1517.9" cy="1227.4" r="4.1586" color="#000000" enable-background="accumulate"/><circle transform="matrix(.8564 0 0 .8564 360.57 51.419)" cx="1517.9" cy="1227.4" r="4.1586" color="#000000" enable-background="accumulate"/><circle transform="matrix(.8564 0 0 .8564 375.73 39.973)" cx="1517.9" cy="1227.4" r="4.1586" color="#000000" enable-background="accumulate"/><circle transform="matrix(.8564 0 0 .8564 374.89 51.419)" cx="1517.9" cy="1227.4" r="4.1586" color="#000000" enable-background="accumulate"/><circle transform="matrix(.8564 0 0 .8564 374.89 56.981)" cx="1517.9" cy="1227.4" r="4.1586" color="#000000" enable-background="accumulate"/><circle transform="matrix(.8564 0 0 .8564 392.23 48.977)" cx="1517.9" cy="1227.4" r="4.1586" color="#000000" enable-background="accumulate"/><circle transform="matrix(1.7654 0 0 .8564 -1008.4 115.34)" cx="1517.9" cy="1227.4" r="4.1586" color="#000000" enable-background="accumulate"/><circle transform="matrix(1.0655 .90945 -.27017 .62796 622.13 -1042.9)" cx="1517.9" cy="1227.4" r="4.1586" color="#000000" enable-background="accumulate"/><circle transform="matrix(-1.0655 .90945 .27017 .62796 3212.4 -1049)" cx="1517.9" cy="1227.4" r="4.1586" color="#000000" enable-background="accumulate"/></g><path d="m2371.1 1047.3c-2.4383 2.1601-4.4863 4.369-1.1377 7.2525l351.95 3.125z" fill="url(#kay)"/><path d="m2375.3 1008.1c-2.7475 2.1601-5.0552 4.369-1.282 7.2525l396.58 3.125z" fill="#fff"/><path d="m2124.7 1075.3 120.91-10.062 32.562 3.375 508.59 3.9062c3.4153 21.858 8.2817 24.28 25.125 26.75l67.187 5.5c-0.8712-1.4121-1.7722-2.8112-2.6562-4.2187l-64.531-5.2813c-16.843-2.4697-21.71-4.8922-25.125-26.75l-508.59-3.9062-32.562-3.375-120.91 10.062c-48.728-20.544-46.384-15.183 0 4z" fill="url(#kax)"/><circle transform="matrix(1.1553,0,0,1.1553,-242.85,-170.92)" cx="1517.9" cy="1227.4" r="4.1586" color="#000000" enable-background="accumulate" fill="url(#kg)"/><circle transform="matrix(1.1553,0,0,1.1553,-232.58,-181.69)" cx="1517.9" cy="1227.4" r="4.1586" color="#000000" enable-background="accumulate" fill="url(#kg)"/><path d="m2747.8 817.34c100.72-29.796 234.9-47.905 255.35-30.744l6.25-11.719c59.667 25.017 132.62 48.956 145.31 125l-6.25 21.875 17.969 0.78125c2.6983 28.391 0.1533 52.849-5.4687 75l-21.094 5.4688-3.9062-14.062-23.437 6.2499-306.26-13.79c-15.438-54.687-36.925-109.37-58.468-164.06z" fill="#b3b3b3"/><ellipse transform="matrix(.93784 0 0 .89818 808.31 -37.424)" cx="2121.3" cy="986.93" rx="29.497" ry="18.23" color="#000000" enable-background="accumulate" fill="url(#kaw)"/><circle transform="matrix(1.4876,0,0,1.9876,-376.59,-1087.7)" cx="2135.1" cy="967.05" r="6.0767" color="#000000" enable-background="accumulate" fill="url(#ke)"/><circle transform="matrix(1.4876,0,0,1.9876,-382.1,-1085.2)" cx="2135.1" cy="967.05" r="6.0767" color="#000000" enable-background="accumulate" fill="url(#ke)"/><path d="m2630.7 903.31c-38.505 0-69.719 18.49-69.719 41.281 0 3.0038 0.5641 5.9286 1.5937 8.75 6.7827-18.586 34.695-32.5 68.125-32.5 33.432 0 61.375 13.912 68.156 32.5 1.029-2.8207 1.5624-5.7471 1.5624-8.75 0-22.791-31.214-41.281-69.719-41.281z" color="#000000" enable-background="accumulate" fill="url(#kav)"/><g fill="url(#ke)"><circle transform="matrix(1.4876,0,0,1.4876,-541.29,-535.29)" cx="2135.1" cy="967.05" r="6.0767" color="#000000" enable-background="accumulate"/><circle transform="matrix(1.4876,0,0,1.9876,-542.46,-1009.8)" cx="2135.1" cy="967.05" r="6.0767" color="#000000" enable-background="accumulate"/><circle transform="matrix(1.4876,0,0,1.4876,-545.6,-494.02)" cx="2135.1" cy="967.05" r="6.0767" color="#000000" enable-background="accumulate"/><circle transform="matrix(1.4876,0,0,1.4876,-543.35,-485.26)" cx="2135.1" cy="967.05" r="6.0767" color="#000000" enable-background="accumulate"/><circle transform="matrix(1.4876,0,0,1.4876,-536.56,-494.02)" cx="2135.1" cy="967.05" r="6.0767" color="#000000" enable-background="accumulate"/></g><path transform="matrix(.99034 -.13869 .16981 .98548 0 0)" d="m1824.3 1274.7 14.717 0.2536 0.4786 23.816-14.984-0.7716z" color="#000000" enable-background="accumulate" fill="#999"/><path d="m2037.8 1001.4-14.625 1.7813 0.1563 0.9063 14.656-1.6876-0.1876-1z" color="#000000" enable-background="accumulate" fill="#4d4d4d"/><ellipse transform="matrix(.5197 0 0 1 959.37 -4.2922)" cx="1975.2" cy="1016.2" rx="14.639" ry="3.3146" color="#000000" enable-background="accumulate" fill="url(#kau)"/><path transform="matrix(1,0,0,1.108,0,-109.15)" d="m2075.2 1006.9c0 1.9416-2.5468 3.5156-5.6884 3.5156-3.1417 0-5.6885-1.574-5.6885-3.5156s2.5468-3.5156 5.6885-3.5156c3.1416 0 5.6884 1.574 5.6884 3.5156z" color="#000000" enable-background="accumulate" fill="#1a1a1a"/><path d="m2039 1007.8-14.745 1.5875 1.7709 9.7461 14.838-1.587z" color="#000000" enable-background="accumulate" fill="#746c56"/><path d="m2037.6 1000.5-14.625 1.7813 0.1563 0.9063 14.656-1.6876-0.1877-1z" color="#000000" enable-background="accumulate" fill="#b3b3b3"/><path d="m2259.1 983c-13.69 0-26.42 1.25-37.156 3.375 6.2056 6.4827 17.95 10.844 31.438 10.844 14.611 0 27.184-5.1448 32.875-12.531-8.3347-1.103-17.518-1.6875-27.156-1.6875z" color="#000000" enable-background="accumulate" fill="url(#kat)"/><path d="m2251.5 954.47c-19.088 0.5727-34.281 9.9346-34.281 21.375 0 2.3851 0.6576 4.6702 1.875 6.8125 4.0617-9.178 18.189-15.938 34.969-15.938 15.922 0 29.44 6.0978 34.25 14.562 0.7678-1.735 1.1563-3.56 1.1563-5.4375 0-11.81-16.173-21.375-36.125-21.375-0.6235 0-1.2281-0.0185-1.8438 0z" color="#000000" enable-background="accumulate" fill="url(#kas)"/><g fill="url(#ke)"><circle transform="matrix(1.3214,0,0,1.3214,-566.73,-326.05)" cx="2135.1" cy="967.05" r="6.0767" color="#000000" enable-background="accumulate"/><circle transform="matrix(1.3214,0,0,1.3214,-566.73,-318.02)" cx="2135.1" cy="967.05" r="6.0767" color="#000000" enable-background="accumulate"/><circle transform="matrix(1.3214,0,0,1.3214,-567.33,-311.15)" cx="2135.1" cy="967.05" r="6.0767" color="#000000" enable-background="accumulate"/><circle transform="matrix(.63694 0 0 1.7552 864.54 -730.57)" cx="2135.1" cy="967.05" r="6.0767" color="#000000" enable-background="accumulate"/><circle transform="matrix(.6048 0 0 1.6666 990.88 -645.17)" cx="2135.1" cy="967.05" r="6.0767" color="#000000" enable-background="accumulate"/></g><path d="m2075.1 999.75c2.3697 10.306-2.3209 15.348 7.5937 31.281 2.3918 3.3971 5.2389 6.5923 8.375 9.1876l16.281-1.7188c5.5855-5.7829 5.3068-11.871-16.156-21.281-8.1849-4.7208-13.354-10.824-16.031-17.406-0.018-0.0226-0.044-0.0399-0.062-0.0625z" fill="url(#kdb)"/><ellipse transform="matrix(1.1244 .1061 -.11156 1.0094 -277.73 -298.35)" cx="2978.1" cy="869.41" rx="126.41" ry="78.125" color="#000000" enable-background="accumulate" fill="url(#kda)"/><path d="m2958.1 798.78c-70.916 0.34156-127.92 30.117-132.44 72.125-1.6323 15.163 3.7877 30.071 14.625 43.594-6.5713-10.398-9.6487-21.477-8.4062-32.719 4.8133-43.552 72.374-72.845 150.88-65.438 78.501 7.4072 138.22 48.698 133.41 92.25-1.6853 15.249-11.063 28.772-25.906 39.562 20.242-12.437 33.218-29.026 35.281-48.188 5.0775-47.167-57.942-91.915-140.75-99.938-9.0571-0.87741-17.978-1.292-26.688-1.25z" color="#000000" enable-background="accumulate" fill="url(#kcz)"/><path d="m2957.4 813.19c-67.228 0.31538-121.28 27.805-125.56 66.594-0.2627 2.3763-0.3331 4.7359-0.2188 7.0938 0.042-1.0337 0.1042-2.0571 0.2188-3.0938 4.8133-43.552 72.374-72.845 150.88-65.438 74.312 7.0119 131.78 44.397 133.62 85.312 1.8767-42.453-56.897-82.073-133.62-89.312-8.5861-0.81016-17.056-1.195-25.313-1.1562z" color="#000000" enable-background="accumulate" fill="url(#kar)"/><ellipse transform="matrix(.89343 .086319 -.088638 .8212 391.43 -73.619)" cx="2978.1" cy="869.41" rx="126.41" ry="78.125" color="#000000" enable-background="accumulate" fill="url(#kcy)"/><path d="m2964.8 866.06c-45.445-0.4634-82.309 19.225-85.188 47.188-0.5029 4.8854 0.05 9.7207 1.5626 14.438 18.988 17.301 50.404 30.342 86.969 33.875 38.788 3.7475 74.183-4.0741 96.344-19.031 1.422-3.274 2.3514-6.7125 2.7188-10.281 3.1763-30.855-36.26-60.127-88.062-65.375-4.8565-0.49198-9.6426-0.76456-14.344-0.8125z" color="#000000" enable-background="accumulate" fill="url(#kaq)"/><path d="m2963.2 858.88c-47.179-0.49043-85.48 20.313-88.469 49.875-0.4659 4.6097-0.031 9.1752 1.1875 13.656 0.6305 0.69492 1.2998 1.379 1.9688 2.0625-0.2034-2.477-0.2003-4.9692 0.031-7.4688 3.191-34.449 47.928-57.609 99.969-51.75 52.04 5.859 91.66 38.489 88.469 72.938-0.095 1.037-0.2359 2.1089-0.4063 3.125 1.8893-3.9365 3.0907-8.1112 3.5313-12.469 3.2972-32.621-37.601-63.577-91.375-69.125-5.0413-0.52013-10.026-0.79302-14.906-0.84375z" color="#000000" enable-background="accumulate" fill="url(#kap)"/><path d="m2981.3 844.16c-99.258 0-77.662 47.48-80.222 70.438-1.9911 17.854 16.77 34.988 44.854 43.562 7.1449 1.5125 14.579 2.67 22.238 3.4062 15.206 1.4617 29.885 1.1666 43.472-0.625 22.766-5.2205 38.927-17.097 40.614-32.219 2.56-22.958 11.854-84.562-70.956-84.562z" color="#000000" enable-background="accumulate" fill="url(#kcx)"/><ellipse transform="matrix(.5829 .05905 -.057831 .56178 1291.1 216.49)" cx="2978.1" cy="869.41" rx="126.41" ry="78.125" color="#000000" enable-background="accumulate" fill="url(#kao)"/><path transform="matrix(.46879 .04749 -.046509 .4518 1621.1 350.44)" d="m3104.5 869.41c0 43.147-56.595 78.125-126.41 78.125-69.814 0-126.41-34.978-126.41-78.125s-38.767-75.079 126.41-78.125c134.94-2.4888 126.41 34.978 126.41 78.125z" color="#000000" enable-background="accumulate" fill="url(#kcw)"/><ellipse transform="matrix(.46879 .04749 -.046509 .4518 1621.1 331.69)" cx="2978.1" cy="869.41" rx="126.41" ry="78.125" color="#000000" enable-background="accumulate" fill="url(#kcv)"/><g fill="url(#kf)"><ellipse transform="matrix(.15334 .015534 -.015213 .14778 2538.3 659.13)" cx="2978.1" cy="869.41" rx="126.41" ry="78.125" color="#000000" enable-background="accumulate"/><ellipse transform="matrix(.15334 .015534 -.015213 .14778 2541.1 660.79)" cx="2978.1" cy="869.41" rx="126.41" ry="78.125" color="#000000" enable-background="accumulate"/><ellipse transform="matrix(.11844 .015534 -.011751 .14778 2642.5 643.67)" cx="2978.1" cy="869.41" rx="126.41" ry="78.125" color="#000000" enable-background="accumulate"/><ellipse transform="matrix(.11844 .015534 -.011751 .14778 2644.7 631.51)" cx="2978.1" cy="869.41" rx="126.41" ry="78.125" color="#000000" enable-background="accumulate"/><ellipse transform="matrix(.25802 .013336 -.025599 .12687 2244.4 650.71)" cx="2978.1" cy="869.41" rx="126.41" ry="78.125" color="#000000" enable-background="accumulate"/><ellipse transform="matrix(.11844 .015534 -.011751 .14778 2640.9 623.78)" cx="2978.1" cy="869.41" rx="126.41" ry="78.125" color="#000000" enable-background="accumulate"/><ellipse transform="matrix(.15334 .008281 -.015213 .078782 2531.7 808.39)" cx="2978.1" cy="869.41" rx="126.41" ry="78.125" color="#000000" enable-background="accumulate"/><ellipse transform="matrix(.15334 .008281 -.015213 .078782 2531.3 810.74)" cx="2978.1" cy="869.41" rx="126.41" ry="78.125" color="#000000" enable-background="accumulate"/></g><ellipse transform="matrix(.22844 .023142 -.022664 .22016 2316.1 605.59)" cx="2978.1" cy="869.41" rx="126.41" ry="78.125" color="#000000" enable-background="accumulate" fill="#333"/><g fill="url(#kf)"><ellipse transform="matrix(.15334 .015534 -.015213 .14778 2545.4 682.67)" cx="2978.1" cy="869.41" rx="126.41" ry="78.125" color="#000000" enable-background="accumulate"/><ellipse transform="matrix(.11243 .011389 -.011154 .10835 2660.5 720.69)" cx="2978.1" cy="869.41" rx="126.41" ry="78.125" color="#000000" enable-background="accumulate"/><ellipse transform="matrix(.11243 .011389 -.011154 .10835 2641.4 726.16)" cx="2978.1" cy="869.41" rx="126.41" ry="78.125" color="#000000" enable-background="accumulate"/><ellipse transform="matrix(.11243 .011389 -.011154 .10835 2638.7 743.74)" cx="2978.1" cy="869.41" rx="126.41" ry="78.125" color="#000000" enable-background="accumulate"/></g><path d="m2917.5 859.06c-0.3718 2.7896-0.1307 5.8972 0.062 9.2188 0.2907-3.1945 0.1156-6.2915-0.062-9.2188zm119.41 13.375c-0.2262 2.6643-0.5542 5.4058-0.8438 8.2188-2.0066 19.494-30.178 32.628-62.906 29.312-29.588-2.9974-52.774-18.418-55.469-35.75-0.026 0.81007-0.072 1.6145-0.1562 2.4375-2.0067 19.494 22.897 37.997 55.625 41.312 32.728 3.3154 60.9-9.8187 62.906-29.312 0.5916-5.746 1.4691-11.201 0.8438-16.219z" color="#000000" enable-background="accumulate" fill="url(#kcu)"/><path d="m2953.5 921.28c-0.1103 1.1246-0.2235 2.2361-0.3125 3.375-1.0209 13.062-0.514 25.105 1.1563 35.062 4.5118 0.75282 9.1167 1.3924 13.812 1.8438 7.5274 0.72354 14.894 1.012 22.094 0.90625 3.8117-10.496 6.675-23.651 7.9062-37.938-8.1671 0.95668-16.889 1.0385-25.906 0.125-6.5317-0.66168-12.818-1.814-18.75-3.375z" color="#000000" enable-background="accumulate" fill="url(#kan)"/><ellipse transform="matrix(.15334 .0068158 -.015213 .064842 2531.3 839.1)" cx="2978.1" cy="869.41" rx="126.41" ry="78.125" color="#000000" enable-background="accumulate" fill="url(#kf)"/><path d="m2892.6 900.44c-1.6272 3.343-2.6519 6.8932-3.0312 10.594-1.1705 11.418 4.1273 22.569 14 32.094 7.6819 4.0621 16.198 7.6151 25.406 10.531-23.653-11.829-38.572-30.833-36.719-50.562 0.082-0.8807 0.197-1.7933 0.3438-2.6562zm161.34 9.875c0.7404 3.5369 0.9654 7.1578 0.625 10.781-1.6367 17.422-15.99 31.432-36.781 38.875 8.2127-1.4128 15.954-3.4224 23.094-5.9062 9.388-6.9955 15.372-15.875 16.406-25.969 0.6212-6.06-0.6032-12.069-3.3437-17.781z" color="#000000" enable-background="accumulate" fill="url(#kam)"/><path d="m3021.9 765.5-66.312 14.594v0.0312c23.88-0.76749 41.21 1.1393 47.562 6.4688l6.25-11.719c59.667 25.017 132.62 48.956 145.31 125l-6.25 21.875 17.969 0.78125c2.6984 28.391 0.1533 52.849-5.4687 75l-21.094 5.4688-3.9063-14.063-23.438 6.25-29.75-1.3438 6.25 10.531 87.562 14.25c46.5-12 188.8-118.4-154.6-253.1z" fill="url(#kct)"/><path d="m3089 1004.4-6.4473 95.794 86.179 9.3913 7.8402-90.947z" fill="url(#kcs)"/><path d="m2869.5 992.81-26.531 45.281h88.375l-4.4062 42-66.75 0.8437c40.048 58.388 68.937 121 85.094 186.72l82.188 11.313c13.458-89.594 42.699-175.47 42.402-270.79-65.842-19.531-133.53-21.152-200.37-15.364z" fill="url(#kcr)"/><path d="m3007 1051.9c-19.711 0.5878-43.716 55.589-54.437 125.81-5.0785 33.262-6.2948 64.133-4.1876 88.125l54.781 7.5313c9.0358-22.184 16.95-51.694 21.969-84.563 11.068-72.489 3.7925-133.75-16.25-136.81-0.6263-0.096-1.2391-0.1128-1.875-0.094z" color="#000000" enable-background="accumulate" fill="url(#kal)" opacity=".36638"/><path d="m3089 1004.4-19.106 3.7927-12.753 100.29 25.412-8.2864z" fill="url(#kcq)"/><path d="m3244.7 930.38c1.4657 49.74-46.334 74.107-68.133 88.249l-7.8437 90.938 78.281-39.75z" fill="url(#kcp)"/><path d="m3114.9 1336.4-157.22 1.25c2.3665 23.735 3.135 47.797 2.1562 72.156-1.8827 46.855-10.039 92.866-23.875 137.69l189.84-111.44-10.906-99.656z" fill="#666b6e"/><path d="m2945.8 1267.4c5.5822 23.05 9.5989 46.482 11.969 70.25l157.22-1.25-7.875-50.625-161.31-18.375z" fill="#777d81"/><path d="m3616.9 830.9 66.139-45.184 3.6382-24.905-88.552 46.994z" fill="url(#kak)"/><rect x="3125.1" y="1552.3" width="161.31" height="2.6281" color="#000000" enable-background="accumulate"/><path d="m3300.2 615.5c-3.8538-8e-3 -8.4191 0.25714-14.344 0.75l-271.81 134.78c36.452-6.0395 29.538 8.3464 44.375 10.031 4.5928 0.52157 12.568-5.2479 17.469-3.8438 224.23 64.251 235.1 221.09 151.16 289.16-20.4 16.542-67.589 41.152-169.91 62.094-77.364 6.1778-50.749 91.275-50.749 91.275l9.8736 244.04c2.714 26.913 2.1353 65.507 2.125 107.56h260.94l147.94-88.781 25.656-12.156s-6.7964-24.075-3.3331-58.17c1.0129-9.9713 12.146-42.906 12.068-48.518-0.079-5.6113-1.5662-40.901-1.5662-40.901-1.8072-18.419 3.0209-18.573 15.168-26.432 322.43-208.78 246.74-469.72-127.52-651.29l-15.75 0.1875c-15.201-7.1615-20.22-9.7572-31.781-9.7812z" fill="#77776e"/><circle transform="matrix(1.186 0 0 .93182 -543.72 83.781)" cx="2949.2" cy="1125.7" r="34.375" color="#000000" enable-background="accumulate" fill="url(#kaj)"/><path d="m2953.9 1088.5c-22.515 0-40.781 14.341-40.781 32.031 0 2.1346 0.2743 4.2323 0.7812 6.25 3.6941-14.704 20.202-25.781 40-25.781s36.306 11.077 40 25.781c0.507-2.0177 0.7813-4.1154 0.7813-6.25 0-17.69-18.266-32.031-40.781-32.031z" color="#000000" enable-background="accumulate" fill="url(#kai)"/><path transform="matrix(.97696 0 0 -.71956 1467.4 2027.8)" d="m1544.4 1254.1c-2.8685 4.9684-10.127-3.1199-15.095-0.2514-4.9684 2.8685-1.5929 13.199-7.3299 13.199-5.7371 0-2.3616-10.33-7.33-13.199s-12.227 5.2198-15.095 0.2514 7.7654-7.2103 7.7654-12.947-10.634-7.9789-7.7654-12.947c2.8686-4.9684 10.127 3.1199 15.095 0.2514s1.5929-13.199 7.33-13.199c5.737 0 2.3615 10.33 7.3299 13.199 4.9685 2.8685 12.227-5.2198 15.095-0.2514s-7.7654 7.2103-7.7654 12.947 10.634 7.9789 7.7654 12.947z" color="#000000" enable-background="accumulate" fill="url(#kh)"/><path d="m2954.3 1090.9c-9.7933 0-19 4.0994-26.975 11.344 7.2722-2.6356 15.43-4.0938 24.055-4.0938 13.207 0 25.319 3.4687 34.82 9.25-9.0093-10.385-20.003-16.5-31.9-16.5z" color="#000000" enable-background="accumulate" fill="url(#kah)"/><path d="m2873.4 1036.1 55.531 42 4.4062-42z" fill="url(#kag)"/><path d="m2862.2 1078.9-37.205-42.838 48.424-0.01 55.531 42z" fill="url(#kco)"/><path d="m2808.7 991.07c81.866 2e-3 168.37 0.69256 252.97 15.432 10.427 2.0904 12.683 3.4112 21.666-0.2652 22.335-8.3477 49.168-11.876 8.8028-12.498-89.34-6.4921-165.45-13.556-280.82-16.195-12.081 4.5088-11.343 9.0176-2.6167 13.526z" fill="url(#kaf)"/><path d="m3013.2 1333.5 443.37 12.557c4.0224-12.047-2.5241-18.809-19.335-20.44l-399.96-9.9437c-13.29-0.4112-21.092-0.5729-24.082 17.826z" fill="url(#kcn)"/><ellipse transform="matrix(1.072 .068585 -.068585 1.072 -150.59 -298.48)" cx="3132.8" cy="1194.4" rx="31.602" ry="19.531" color="#000000" enable-background="accumulate" fill="url(#kae)"/><path d="m3123.7 1175.7c-17.151-0.021-31.056 8.0658-31.75 18.906-0.05 0.7778-0.023 1.5481 0.063 2.3124 1.1111-11.332 16.688-19.525 35.156-18.344 17.454 1.1167 31.289 10.212 32.469 20.812 0.015-0.154 0.052-0.3136 0.062-0.4688 0.7399-11.563-13.822-21.897-32.531-23.094-1.1693-0.075-2.3253-0.1236-3.4688-0.125z" color="#000000" enable-background="accumulate" fill="url(#kad)"/><path d="m3061.8 1364.9c-16.36 0-32.286 0.084-47.781 0.2188l1.6875 60.469c64.409 3.7485 136.7 6.7448 213.09 8.6562 79.672 1.9934 154.8 2.5509 221.38 1.9062-1.4095-10.353-2.51-25.657-0.6563-43.906 0.3391-3.338 1.8492-9.3392 3.6563-15.938-66.819-4.0159-142.42-7.2418-222.69-9.25-59.255-1.4825-116.07-2.1589-168.69-2.1563z" color="#000000" enable-background="accumulate" fill="url(#kac)"/><path d="m3254.9 1455.4c-19.593-0.2298-36.81 20.071-38.906 46.438-2.1643 27.217 12.598 50.599 32.969 52.219 20.37 1.6198 38.648-19.158 40.812-46.375 2.1644-27.217-12.598-50.568-32.969-52.188-0.6366-0.051-1.2742-0.086-1.9063-0.094z" color="#000000" enable-background="accumulate" fill="url(#kab)" opacity=".35345"/><circle transform="matrix(1.5024 .27063 -.21365 .98094 -1409.9 -866.49)" cx="3295.8" cy="1170.9" r="19.887" color="#000000" enable-background="accumulate"/><circle transform="matrix(1.2415 .22363 -.17655 .81057 -593.4 -512.1)" cx="3295.8" cy="1170.9" r="19.887" color="#000000" enable-background="accumulate" fill="#1a1a1a"/><circle transform="matrix(1.4204 .25586 -.20199 .9274 -911.91 -751.99)" cx="3295.8" cy="1170.9" r="19.887" color="#000000" enable-background="accumulate"/><circle transform="matrix(1.3833 .41168 -.30352 .89931 -659.07 -1622.5)" cx="3295.8" cy="1170.9" r="19.887" color="#000000" enable-background="accumulate"/><circle transform="matrix(.50442 .11163 -.071734 .40462 1712.8 335.11)" cx="3295.8" cy="1170.9" r="19.887" color="#000000" enable-background="accumulate" fill="url(#kd)"/><circle transform="matrix(.34752 .084848 -.049421 .30755 2202 549.2)" cx="3295.8" cy="1170.9" r="19.887" color="#000000" enable-background="accumulate" fill="url(#kd)"/><circle transform="matrix(1.1482 .20682 -.16328 .74967 -60.085 -382.28)" cx="3295.8" cy="1170.9" r="19.887" color="#000000" enable-background="accumulate" fill="#1a1a1a"/><circle transform="matrix(.50413 .091346 -.071692 .3311 1956.2 487.62)" cx="3295.8" cy="1170.9" r="19.887" color="#000000" enable-background="accumulate" fill="url(#kd)"/><circle transform="matrix(.32512 .080565 -.046235 .29202 2516.9 582.78)" cx="3295.8" cy="1170.9" r="19.887" color="#000000" enable-background="accumulate" fill="url(#kd)"/><circle transform="matrix(1.0956 .32605 -.24039 .71225 215.27 -1121.2)" cx="3295.8" cy="1170.9" r="19.887" color="#000000" enable-background="accumulate" fill="#1a1a1a"/><circle transform="matrix(.52538 .16647 -.11528 .36365 1948 -187.12)" cx="3295.8" cy="1170.9" r="19.887" color="#000000" enable-background="accumulate" fill="url(#kd)"/><circle transform="matrix(.366 .10108 -.080307 .22081 2432.3 209.89)" cx="3295.8" cy="1170.9" r="19.887" color="#000000" enable-background="accumulate" fill="url(#kd)"/><g transform="translate(0,-6)" opacity=".7"><path d="m3293.2 1160.1c-5.5716-0.7113-10.882-0.2085-15.384 1.2147l1.2812 4.9025c3.708-1.6365 8.4609-2.3296 13.536-1.6816 5.0485 0.6444 9.4518 2.4975 12.626 4.9928l2.472-4.4234c-3.991-2.4909-8.9856-4.2969-14.532-5.005z" color="#000000" enable-background="accumulate" fill="url(#kaa)" style="text-indent:0;text-transform:none"/><path d="m3274.4 1162.7c-5.2941 2.4952-8.9154 6.4563-9.5294 11.267-0.2388 1.8705 0.017 3.7205 0.6539 5.516l7.2219 0.922c-0.9392-1.7678-1.3533-3.6579-1.1088-5.574 0.3358-2.6309 1.8518-4.9045 4.1736-6.6623l-1.4112-5.4683z" color="#000000" enable-background="accumulate" fill="url(#kz)" style="text-indent:0;text-transform:none"/><path d="m3310.7 1167.3-2.7362 4.9098c1.823 2.2929 2.7281 4.8859 2.3908 7.5294-0.2448 1.917-1.1197 3.639-2.4738 5.1166l7.222 0.9221c1.0685-1.5793 1.7799-3.3031 2.0187-5.1748 0.615-4.817-1.9123-9.5553-6.4215-13.303z" color="#000000" enable-background="accumulate" fill="url(#ky)" style="text-indent:0;text-transform:none"/></g><g transform="translate(0,-6)" opacity=".7"><path d="m3534.2 1162.8c-5.5716-0.7113-10.882-0.2085-15.384 1.2147l1.2812 4.9025c3.708-1.6365 8.4609-2.3296 13.536-1.6816 5.0485 0.6444 9.4518 2.4975 12.626 4.9928l2.472-4.4234c-3.991-2.4909-8.9856-4.2969-14.532-5.005z" color="#000000" enable-background="accumulate" fill="url(#kx)" style="text-indent:0;text-transform:none"/><path d="m3515.5 1165.4c-5.2941 2.4952-8.9154 6.4563-9.5294 11.267-0.2388 1.8705 0.017 3.7205 0.6539 5.516l7.2219 0.922c-0.9392-1.7678-1.3533-3.6579-1.1088-5.574 0.3358-2.6309 1.8518-4.9045 4.1736-6.6623l-1.4112-5.4683z" color="#000000" enable-background="accumulate" fill="url(#kw)" style="text-indent:0;text-transform:none"/><path d="m3551.8 1170-2.7362 4.9098c1.823 2.2929 2.7281 4.8859 2.3908 7.5294-0.2448 1.917-1.1197 3.639-2.4738 5.1166l7.222 0.9221c1.0685-1.5793 1.7799-3.3031 2.0187-5.1748 0.615-4.817-1.9123-9.5553-6.4215-13.303z" color="#000000" enable-background="accumulate" fill="url(#kv)" style="text-indent:0;text-transform:none"/></g><g transform="translate(0,-4)" opacity=".7"><path d="m3548.2 771.3c-4.9998-1.1877-9.8797-1.2454-14.113-0.3874l0.6899 4.5845c3.5321-1.1291 7.9235-1.2985 12.478-0.21663 4.5306 1.0761 8.3568 3.1892 11.002 5.7673l2.6781-3.7845c-3.3892-2.6534-7.758-4.781-12.735-5.9633z" color="#000000" enable-background="accumulate" fill="url(#ku)" style="text-indent:0;text-transform:none"/><path d="m3530.9 771.79c-5.0586 1.7564-8.7374 5.0088-9.7627 9.3255-0.3988 1.6786-0.3451 3.3865 0.06 5.0818l6.4808 1.5395c-0.6829-1.6994-0.8762-3.4592-0.4679-5.1786 0.5608-2.3609 2.1605-4.2823 4.4434-5.6563l-0.7533-5.1118z" color="#000000" enable-background="accumulate" fill="url(#kt)" style="text-indent:0;text-transform:none"/><path d="m3563.5 779.53-2.9657 4.2014c1.4361 2.2629 2.0079 4.7097 1.4446 7.082-0.4087 1.7203-1.3718 3.202-2.7471 4.4149l6.481 1.5396c1.1253-1.3332 1.9398-2.8324 2.3387-4.512 1.0267-4.3227-0.8128-8.8787-4.5515-12.726z" color="#000000" enable-background="accumulate" fill="url(#ks)" style="text-indent:0;text-transform:none"/></g><path d="m3125.8 1169.5c-9.3073 0-16.844 2.7841-16.844 6.2187s7.5364 6.2187 16.844 6.2187c9.3074 0 16.844-2.7841 16.844-6.2187s-7.5364-6.2187-16.844-6.2187z" color="#000000" enable-background="accumulate" fill="url(#kr)"/><ellipse transform="matrix(.24134 .031651 -.023944 .30112 2920.1 389.63)" cx="2978.1" cy="869.41" rx="126.41" ry="78.125" color="#000000" enable-background="accumulate" fill="url(#kf)"/><path transform="matrix(.97696 0 0 -.5447 2131.1 1383.8)" d="m1544.4 1254.1c-2.8685 4.9684-10.127-3.1199-15.095-0.2514-4.9684 2.8685-1.5929 13.199-7.3299 13.199-5.7371 0-2.3616-10.33-7.33-13.199s-12.227 5.2198-15.095 0.2514 7.7654-7.2103 7.7654-12.947-10.634-7.9789-7.7654-12.947c2.8686-4.9684 10.127 3.1199 15.095 0.2514s1.5929-13.199 7.33-13.199c5.737 0 2.3615 10.33 7.3299 13.199 4.9685 2.8685 12.227-5.2198 15.095-0.2514s-7.7654 7.2103-7.7654 12.947 10.634 7.9789 7.7654 12.947z" color="#000000" enable-background="accumulate" fill="url(#kh)"/><g fill="url(#kf)"><ellipse transform="matrix(.053041 .0069563 -.0052623 .066179 3464.6 620.6)" cx="2978.1" cy="869.41" rx="126.41" ry="78.125" color="#000000" enable-background="accumulate" opacity=".84052"/><ellipse transform="matrix(.053041 .0069563 -.0052623 .066179 3450.3 629.46)" cx="2978.1" cy="869.41" rx="126.41" ry="78.125" color="#000000" enable-background="accumulate" opacity=".84052"/><ellipse transform="matrix(.053041 .0069563 -.0052623 .066179 3465.1 635.5)" cx="2978.1" cy="869.41" rx="126.41" ry="78.125" color="#000000" enable-background="accumulate" opacity=".84052"/><ellipse transform="matrix(.053041 .0069563 -.0052623 .066179 3478.9 629.46)" cx="2978.1" cy="869.41" rx="126.41" ry="78.125" color="#000000" enable-background="accumulate" opacity=".84052"/></g><path d="m1768.9 1028.5c-15.976-0.021-31.933 2.7602-39.25 8.25l72.531-3.0626c-8.4044-3.438-20.855-5.1713-33.281-5.1874z" color="#000000" enable-background="accumulate" fill="url(#kq)"/><path d="m1728 1056.9 76.313-3.5549c-20.487-4.7342-62.912-3.1065-76.313 3.5549z" color="#000000" enable-background="accumulate" fill="url(#kp)"/><path d="m1736.4 1049 61.476-1.9062c-16.335-5.7736-50.501-5.099-61.476 1.9062z" color="#000000" enable-background="accumulate" fill="url(#ko)"/><path d="m1775.6 1065-22.188 4.5313 4.5312 27.281 22.219-4.2813-4.5625-27.531z" color="#000000" enable-background="accumulate" fill="url(#kn)"/><path d="m1789.2 1526.2c-19.611-0.065-38.229 5.9776-39.156 17.688 26.941-2.6496 53.265-4.7593 78.875-6.25-8.6029-7.6201-24.466-11.387-39.719-11.438z" color="#000000" enable-background="accumulate" fill="url(#km)"/><path d="m3135.8 1537.9c0.3281 1.6285 0.5547 3.2873 0.625 4.9688 0.1204 2.8782-0.1485 5.7218-0.7813 8.5h143.66l22.438-13.469h-165.94z" color="#000000" enable-background="accumulate" fill="url(#kl)"/><path transform="matrix(.85858 0 0 1 429.27 14.295)" d="m3034.7 1362.6c11.679 39.449-21.956 54.834-21.956 54.834s-11.117-97.056-3.1987-98.28c6.102 0 18.151 19.79 25.154 43.446z" color="#000000" enable-background="accumulate" fill="#2e2e2a"/><path d="m3126 793.6c144.38 64.502 161.95 175.66 112.02 242.81 69.643-70.523 52.666-210.51-146.14-274.33-124.19 5.3393-52.608-6.9195 34.116 31.521z" fill="url(#kcm)" opacity=".34052"/><path d="m3322.5 620.88-277 133.15c3.875 2.9041 6.1591 6.265 12.906 7.0312 4.5928 0.52157 12.568-5.2479 17.469-3.8438 2.0199 0.5788 4.0146 1.1876 6 1.7812l272.09-130.84c-2.0778-1.0221-4.1535-2.0454-6.25-3.0625l-15.75 0.1875c-3.693-1.7398-6.7692-3.1768-9.5-4.4062z" color="#000000" enable-background="accumulate" fill="url(#kk)" opacity=".2"/><path d="m3005.3 1279c-13.042 7.2461-21.562 22.527-20.562 39.682l11.594 199.1c4.9986-4.7371 10.978-8.9708 17.781-12.526-0.3245-11.213-0.8294-21.519-1.6562-30.573l-7.1563-195.69z" color="#000000" enable-background="accumulate" fill="#333"/><path d="m3009.1 1273.3c-13.042 6.3787-21.562 19.83-20.563 34.932l13.3 200.8c5.0398-2.693 10.608-5.055 16.594-6.9865-0.1035-21.624-0.5595-41.017-2.1562-56.408l-7.1562-172.26z" color="#000000" enable-background="accumulate" fill="url(#kcl)"/><path d="m3016.8 1125.6c-15.079 13.483-16.167 26.717-16.396 37.922-1.0777 52.75 11.29 248.66 17.964 338.29l-5.2412-168.37s-6.9157-129.89-7.7916-157.6c0.4379-24.92-1.8892-35.801 11.464-50.244z" fill="#1a1a1a"/><path d="m3670.2 1049.6c-0.031 0.1148-0.062 0.2289-0.094 0.3437 0.6522 7.0252 1.0876 14.094 1.3438 21.219-0.2386-7.2356-0.6378-14.43-1.25-21.562zm1.4374 41.906c-2.8031 144.2-88.992 269.75-216.25 338l-1.2812 10.719c127.17-65.239 214.82-196.61 217.53-348.72z" color="#000000" enable-background="accumulate" fill="url(#kj)" opacity=".6"/></g></g></svg>
